<?xml version="1.0" encoding="utf-8"?>
<!-- Generator: Adobe Illustrator 21.1.0, SVG Export Plug-In . SVG Version: 6.00 Build 0)  -->
<svg version="1.1" id="Camada_1" xmlns="http://www.w3.org/2000/svg" xmlns:xlink="http://www.w3.org/1999/xlink" x="0px" y="0px"
	 viewBox="0 0 960.5 277.4" style="enable-background:new 0 0 960.5 277.4;" xml:space="preserve">
<style type="text/css">
	.st0{display:none;}
	.st1{display:inline;opacity:0.25;fill:#2BE2C3;enable-background:new    ;}
	.st2{display:inline;opacity:0.3;fill:#2BE2C3;enable-background:new    ;}
	.st3{display:inline;opacity:0.5;fill:#2BE2C3;enable-background:new    ;}
	.st4{fill:url(#SVGID_1_);}
	.st5{fill:url(#SVGID_2_);}
	.st6{fill:url(#SVGID_3_);}
	.st7{display:inline;}
	.st8{fill:url(#SVGID_4_);}
	.st9{fill:url(#SVGID_5_);}
	.st10{fill:url(#SVGID_6_);}
	.st11{fill:url(#SVGID_7_);}
	.st12{fill:url(#SVGID_8_);}
	.st13{fill:url(#SVGID_9_);}
	.st14{fill:url(#SVGID_10_);}
	.st15{fill:url(#SVGID_11_);}
	.st16{fill:url(#SVGID_12_);}
	.st17{fill:url(#SVGID_13_);}
	.st18{fill:url(#SVGID_14_);}
	.st19{fill:url(#SVGID_15_);}
	.st20{fill:url(#SVGID_16_);}
	.st21{fill:url(#SVGID_17_);}
	.st22{fill:url(#SVGID_18_);}
	.st23{fill:#523F7F;}
	.st24{display:none;fill:#523F7F;}
</style>
<g id="guias">
	<g id="areas" class="st0">
		<rect x="40" class="st1" width="277.4" height="277.4"/>
		<rect x="98.4" y="58.4" class="st2" width="160.9" height="160.9"/>
		<rect x="121.3" y="81.3" class="st3" width="114.9" height="114.9"/>
	</g>
	<g id="guias_1_">
	</g>
</g>
<g id="concrete-logotipo">
	<g id="_x23_1_1_">
		<g id="XMLID_79_">
			
				<linearGradient id="SVGID_1_" gradientUnits="userSpaceOnUse" x1="80.5492" y1="80.9187" x2="299.2048" y2="205.463" gradientTransform="matrix(1 0 0 -1 0 280)">
				<stop  offset="0" style="stop-color:#39E47A"/>
				<stop  offset="1" style="stop-color:#00C8FF"/>
			</linearGradient>
			<path class="st4" d="M179.1,6.2c23.1,0,45.7,6.1,65.3,17.7c20.5,12.1,37.3,29.4,50,51.6c18.4,32.2,23.2,69.6,13.4,105.4
				c-9.8,35.9-33.2,65.8-65.6,84.2c-8.9,5.1-16.5,7.6-22.5,7.6c-13.1,0-19.3-12.1-28.3-31.7c-11.2-24.4-25.2-54.9-66-59.1
				c-43.5-4.5-70.6-23.5-76.2-53.4c-3.4-17.8,1.1-38.5,12.6-58.1c11.6-19.9,29.3-36.6,49.7-47.2C133.4,12,156.1,6.2,179.1,6.2
				L179.1,6.2 M179.1,1.6c-23,0-46.7,5.7-69.6,17.6C33.8,58.4,4.4,174.1,125,186.6c67.7,7,56.4,90.8,94.7,90.8
				c6.6,0,14.6-2.5,24.8-8.2c69.3-39.3,93.4-127,54-195.9C271.8,26.6,227.1,1.6,179.1,1.6L179.1,1.6z"/>
		</g>
		<g id="XMLID_77_">
			<g>
				
					<linearGradient id="SVGID_2_" gradientUnits="userSpaceOnUse" x1="98" y1="141.25" x2="223.8532" y2="141.25" gradientTransform="matrix(1 0 0 -1 0 280)">
					<stop  offset="0" style="stop-color:#00C8FF"/>
					<stop  offset="1" style="stop-color:#4E7DFF"/>
				</linearGradient>
				<path class="st5" d="M179.7,62.8c19.7,0,35.3,8.7,38.8,21.6c1.9,6.8,0.2,14.6-4.9,22.4c-6.2,9.6-16.9,18.9-31.9,27.6
					c-6.6,3.8-10.6,8.8-12,14.6c-2.7,11.5,5.2,23.5,12.9,35.2c5.9,8.9,12,18.1,9.9,23.1c-1.2,2.9-6,5.3-13.7,6.8
					c-2.3,0.4-4.6,0.7-7.1,0.7c-15.2,0-32.6-8.8-46.4-23.6c-14.5-15.4-22.8-34.7-22.8-52.7C102.5,96.7,137.1,62.8,179.7,62.8
					 M179.7,58.2c-45.1,0-81.7,35.9-81.7,80.2c0,41.1,39.4,80.9,73.8,80.9c2.7,0,5.3-0.2,7.9-0.7c53.6-10.4-34.5-57.5,4.3-80.2
					C249.1,100.3,224.8,58.2,179.7,58.2L179.7,58.2z"/>
			</g>
		</g>
		<g id="XMLID_75_">
			<g>
				
					<linearGradient id="SVGID_3_" gradientUnits="userSpaceOnUse" x1="129.39" y1="166.2327" x2="220.3456" y2="112.1588" gradientTransform="matrix(1 0 0 -1 0 280)">
					<stop  offset="0" style="stop-color:#5725B6"/>
					<stop  offset="1" style="stop-color:#4E7DFF"/>
				</linearGradient>
				<path class="st6" d="M179.4,83.7v4.6c9.4,0,18.9,2.5,27.4,7.4c9.8,5.6,17.2,13,21.4,21.3c3.6,7.3,4.7,15.1,2.8,22
					c-3.2,12-13.9,19.2-28.7,19.2c-2.8,0-5.7-0.3-8.7-0.8c-1.8-0.3-3.6-0.5-5.2-0.5c-15.1,0-18.6,12.6-21.1,21.8s-4,12.9-9.2,12.9
					c-1.8,0-4-0.4-6.6-1.3c-12.8-4.3-19.1-14.6-22.1-22.6c-6.3-16.4-4.5-37.2,4.5-52.9c9.5-16.6,26.4-26.5,45.3-26.5L179.4,83.7
					 M179.4,83.7c-19.7,0-38.6,10-49.3,28.9c-16.3,28.4-10.2,72,20.1,82.1c3.2,1.1,5.8,1.5,8.1,1.5c19.1,0,7.9-34.7,30.2-34.7
					c1.4,0,2.8,0.1,4.5,0.4c3.3,0.6,6.5,0.8,9.4,0.8c40,0,48.2-47.5,6.7-71.1C199.7,86.3,189.5,83.7,179.4,83.7L179.4,83.7z"/>
			</g>
		</g>
	</g>
	<g id="_x23_2_1_" class="st0">
		<g id="XMLID_73_" class="st7">
			
				<linearGradient id="SVGID_4_" gradientUnits="userSpaceOnUse" x1="67.8663" y1="69.5546" x2="292.0155" y2="197.2281" gradientTransform="matrix(1 0 0 -1 0 280)">
				<stop  offset="0" style="stop-color:#39E47A"/>
				<stop  offset="1" style="stop-color:#00C8FF"/>
			</linearGradient>
			<path class="st8" d="M173.7,5.3c33.3,0,63.7,12.8,85.7,35.9c10.7,11.3,18.9,24.5,24.3,39.2c5.5,15,7.9,30.9,7,47.1
				c-1.4,24.9-0.8,45.2-0.3,61.5c0.6,20.2,1.1,34.8-2.3,46.7c-3.4,12-10.8,21-24.7,29.9c-8.4,5.4-15.7,7.8-23.2,7.8
				c-10,0-19.6-4.5-31.6-10.1c-13.9-6.5-31.2-14.6-55.2-18c-32.3-4.6-58.3-16.9-77.3-36.7c-16.7-17.4-27.1-39.9-29.9-65.1
				c-2.9-25.9,2.4-52.9,14.9-75.9c13.3-24.4,33.4-42.2,58-51.7C137.4,9,155.9,5.3,173.7,5.3L173.7,5.3 M173.7,0.7
				c-17.7,0-36.7,3.4-56.4,11C13.8,51.7,5.3,229,152.6,250c43.9,6.2,63.9,28.2,87.5,28.2c7.8,0,16.1-2.4,25.7-8.6
				c43.6-28,24.7-56.2,29.4-141.7C298.9,59.9,247,0.7,173.7,0.7L173.7,0.7z"/>
		</g>
		<g id="XMLID_71_" class="st7">
			<g>
				
					<linearGradient id="SVGID_5_" gradientUnits="userSpaceOnUse" x1="97.0485" y1="134.2154" x2="254.5679" y2="106.4404" gradientTransform="matrix(1 0 0 -1 0 280)">
					<stop  offset="0" style="stop-color:#00C8FF"/>
					<stop  offset="1" style="stop-color:#4E7DFF"/>
				</linearGradient>
				<path class="st9" d="M139,95.8v4.6l0,0c12,0,25,5.9,37.4,17.1c6,5.4,12.2,8,18.9,8c7.7,0,14.7-3.5,20.8-6.6
					c5.3-2.6,10.3-5.1,14.8-5.1c3.2,0,8.3,1.1,14.6,11c10,15.6,10.2,34.8,0.5,52.7c-5.8,10.7-14.6,19.9-25.5,26.6
					c-11.4,7-24.2,10.7-37.1,10.7c-27.9,0-50.1-7.8-64.2-22.4c-11.6-12.1-17.4-28.6-16.6-47.8c1-26.4,15.6-44.1,36.4-44.1V95.8
					 M139,95.8c-22.7,0-39.8,19-41,48.5c-1.7,44.5,29.2,75.1,85.4,75.1c51.8,0,92.6-55.6,66-97.1c-6.4-9.9-12.4-13.2-18.5-13.2
					c-11.5,0-22.8,11.8-35.6,11.8c-5,0-10.3-1.8-15.8-6.8C165.4,101.4,151.3,95.8,139,95.8L139,95.8z"/>
			</g>
		</g>
		<g id="XMLID_69_" class="st7">
			<g>
				
					<linearGradient id="SVGID_6_" gradientUnits="userSpaceOnUse" x1="230.3883" y1="117.5853" x2="135.4974" y2="166.393" gradientTransform="matrix(1 0 0 -1 0 280)">
					<stop  offset="0" style="stop-color:#5725B6"/>
					<stop  offset="1" style="stop-color:#4E7DFF"/>
				</linearGradient>
				<path class="st10" d="M199.5,82v4.6c1.4,0,2.9,0.1,4.4,0.4c11.6,1.9,18.3,10.3,21.7,17c8.4,16.2,8.3,40.7-0.3,58.3
					c-4.5,9.3-11.4,17-19.8,22.2c-8.1,5-17.5,7.6-27.2,7.6c-8.4,0-16.6-1.9-24.3-5.7c-17.1-8.3-27.8-26.2-25.9-43.5
					c1.6-15,12.5-26,30-30.2c9.7-2.3,15.8-8.8,21.3-14.5c6-6.3,11.1-11.7,20.1-11.7V82 M199.5,82c-20.2,0-24.1,21.9-42.5,26.3
					c-47.3,11.4-41,64.8-5,82.3c8.5,4.1,17.5,6.1,26.3,6.1c21,0,40.9-11.4,51.1-32.4c14.5-29.9,6.6-76.8-24.8-81.9
					C202.8,82.1,201.1,82,199.5,82L199.5,82z"/>
			</g>
		</g>
	</g>
	<g id="_x23_3_1_" class="st0">
		<g id="XMLID_67_" class="st7">
			
				<linearGradient id="SVGID_7_" gradientUnits="userSpaceOnUse" x1="46.3494" y1="119.3638" x2="312.131" y2="148.9755" gradientTransform="matrix(1 0 0 -1 0 280)">
				<stop  offset="0" style="stop-color:#39E47A"/>
				<stop  offset="1" style="stop-color:#00C8FF"/>
			</linearGradient>
			<path class="st11" d="M129.4,19.3c15.4,0,28.9,4.6,41.3,14c12.1,9.2,23.3,23,34.1,42.2c7.9,14,23.6,18.6,40.2,23.6
				c19.4,5.7,39.5,11.7,52.5,32.4c9.8,15.8,14.9,32.4,15.1,49.3c0.2,15.2-3.8,30.5-11.4,44.2c-16.1,29-46.2,47.8-76.8,47.8
				c-9.4,0-18.7-1.8-27.5-5.3c-25.2-10.1-33.7-25.6-42.8-41.9c-9.5-17.2-19.3-34.9-48.9-43.5c-20.1-5.8-36.2-17.2-46.7-32.8
				C48.9,135,44.3,118,45.2,99.9c1.6-33.2,23.1-70.5,67.4-78.9C118.5,19.9,124.1,19.3,129.4,19.3L129.4,19.3 M129.4,14.7
				c-5.6,0-11.4,0.6-17.5,1.7C24.8,33,12.1,159.7,104,186.5c54.5,15.8,36.9,63.4,91.3,85.3c9.6,3.9,19.5,5.7,29.2,5.7
				c63.6,0,121.7-76.5,76.9-148.4c-25.4-40.7-77.2-28.5-92.6-55.8C187.3,34.9,162.6,14.7,129.4,14.7L129.4,14.7z"/>
		</g>
		<g id="XMLID_65_" class="st7">
			<g>
				
					<linearGradient id="SVGID_8_" gradientUnits="userSpaceOnUse" x1="157.2734" y1="219.69" x2="206.3082" y2="62.5308" gradientTransform="matrix(1 0 0 -1 0 280)">
					<stop  offset="0" style="stop-color:#00C8FF"/>
					<stop  offset="1" style="stop-color:#4E7DFF"/>
				</linearGradient>
				<path class="st12" d="M174.4,58.8v4.6c15.9,0,31.6,5.1,45.3,14.9c13.7,9.7,24.5,23.1,31.3,38.8c4.4,10.2,5.6,21.5,3.5,33.5
					c-1.8,10.9-6.3,22-13,32.1c-12.6,19.2-31.3,32.1-46.5,32.1c-9.4,0-17-4.8-22.5-14.3c-13.5-23.2-23.2-27.2-35.5-30.3
					c-7.1-1.8-13.3-3.4-21.7-13.3c-11.6-13.6-15-32.1-9.1-49.4c3.4-9.9,9.6-18.8,18-26c9.4-8,21.1-13.5,34.9-16.4
					c5-1.1,10.2-1.6,15.3-1.6L174.4,58.8 M174.4,58.8c-5.4,0-10.8,0.6-16.3,1.7c-57.3,12.2-73.9,66.8-46.3,99.2
					c21.8,25.6,32.9,2.1,56.7,43c6.8,11.6,16.2,16.6,26.5,16.6c35.2,0,80-57.9,60.2-104C240.8,81.9,209,58.8,174.4,58.8L174.4,58.8z
					"/>
			</g>
		</g>
		<g id="XMLID_63_" class="st7">
			<g>
				
					<linearGradient id="SVGID_9_" gradientUnits="userSpaceOnUse" x1="181.0493" y1="198.3117" x2="177.787" y2="87.8673" gradientTransform="matrix(1 0 0 -1 0 280)">
					<stop  offset="0" style="stop-color:#5725B6"/>
					<stop  offset="1" style="stop-color:#4E7DFF"/>
				</linearGradient>
				<path class="st13" d="M177,86.2L177,86.2c0.2,0,0.5,0,0.7,0c13.5,0.2,26.5,5.8,36.8,15.8c10,9.8,16.4,22.8,17.9,36.5
					c1.7,15.4-2,28.9-10.3,38.2c-6.5,7.3-15.5,11.4-24.6,11.4c-13.8,0-24.6-9.2-28.9-24.6c-4-14.3-14.5-15.8-22.9-17
					c-8.2-1.2-14.7-2.1-18.2-12.9c-3.8-11.7,0.4-20.9,4.5-26.5C141.2,94.6,159.3,86.2,177,86.2 M177,81.6
					c-30.6,0-63.4,23.5-53.8,53.4c8.5,26.3,34.4,6.3,41,29.8c5.3,19.1,19.1,27.9,33.3,27.9c21.2,0,43.3-19.7,39.5-54.7
					c-3.3-29.9-28.3-56-59.2-56.4C177.5,81.6,177.3,81.6,177,81.6L177,81.6z"/>
			</g>
		</g>
	</g>
	<g id="_x23_4_1_" class="st0">
		<g id="XMLID_61_" class="st7">
			
				<linearGradient id="SVGID_10_" gradientUnits="userSpaceOnUse" x1="51.3669" y1="83.2422" x2="312.2879" y2="186.1766" gradientTransform="matrix(1 0 0 -1 0 280)">
				<stop  offset="0" style="stop-color:#39E47A"/>
				<stop  offset="1" style="stop-color:#00C8FF"/>
			</linearGradient>
			<path class="st14" d="M227.7,16.8c11.7,0,24.1,4.1,46.4,24.2c22.6,20.4,36.2,50.4,38.3,84.5c2,32.6-6.8,65.9-24.3,91.3
				c-12.4,18.1-28.9,32.2-48.9,42c-18.7,9.2-40,14-61.4,14c-23.4,0-46.3-5.7-66.2-16.5c-21.1-11.4-38.3-28.4-50-49.2
				c-10.6-18.9-16.2-40.8-16.4-63.4c-0.1-22.4,5.1-43.8,15.1-62.1c17.3-31.4,46.9-49.8,83.3-51.8c25.5-1.4,43.2-5.5,57.5-8.8
				C211.6,18.7,219.9,16.8,227.7,16.8L227.7,16.8 M227.7,12.2c-19.3,0-40.1,10.7-84.3,13.1C49.1,30.4,17.6,138,57.6,209.4
				c25.4,45.3,72.7,68,120.2,68c43.7,0,87.4-19.3,114.1-58c36.9-53.5,35.1-137-14.7-181.8C255.5,18.1,242,12.2,227.7,12.2
				L227.7,12.2z"/>
		</g>
		<g id="XMLID_59_" class="st7">
			<g>
				
					<linearGradient id="SVGID_11_" gradientUnits="userSpaceOnUse" x1="102.1311" y1="164.1227" x2="249.1941" y2="120.5482" gradientTransform="matrix(1 0 0 -1 0 280)">
					<stop  offset="0" style="stop-color:#00C8FF"/>
					<stop  offset="1" style="stop-color:#4E7DFF"/>
				</linearGradient>
				<path class="st15" d="M186.8,58.8v4.6c8,0,16.1,1.1,23.8,3.2c24.8,6.7,45.6,31.9,44.4,53.8c-1,18.5-17.3,31.2-46,35.9
					c-12,1.9-19.5,6.9-22.8,15c-2.8,6.9-2.1,14.5-1.4,21.8c0.7,7.2,1.3,14-1.9,17.5c-2.4,2.6-7.3,4-14.7,4c-2,0-4.2-0.1-6.6-0.3
					c-16-1.3-32.4-12.5-44-30c-6.5-9.7-11-20.8-13.2-31.9c-2.2-11.7-1.7-23.3,1.6-33.5c5.3-16.3,15.9-30.2,30.7-40.3
					c14.4-9.8,32.2-15.2,50-15.2L186.8,58.8 M186.8,58.8c-38.3,0-73.6,23.1-85.1,58.6c-14,43.3,20.1,98.1,59.6,101.4
					c2.5,0.2,4.8,0.3,6.9,0.3c47.1,0-4.5-50.9,41.6-58.4c81.8-13.2,48.9-85.9,2.1-98.7C203.5,59.9,195,58.8,186.8,58.8L186.8,58.8z"
					/>
			</g>
		</g>
		<g id="XMLID_57_" class="st7">
			<g>
				
					<linearGradient id="SVGID_12_" gradientUnits="userSpaceOnUse" x1="126.8547" y1="114.5704" x2="230.8782" y2="169.1497" gradientTransform="matrix(1 0 0 -1 0 280)">
					<stop  offset="0" style="stop-color:#5725B6"/>
					<stop  offset="1" style="stop-color:#4E7DFF"/>
				</linearGradient>
				<path class="st16" d="M185.2,81.4V86c12.7,0,21.9,4.7,27.4,8.7c6.9,5,11.9,11.8,13.6,18.7c2.3,9.1-1.3,16.8-10.1,21.7
					c-23.2,12.7-19.4,24.7-16.7,33.5c1.9,6.1,3,9.7-2.2,14.6c-6.4,6-14.7,9.2-24,9.2c-15.6,0-35-9.7-43-31.3
					c-13.4-36.1,8.9-56.4,23.3-65.2c10.5-6.5,21.2-9.7,31.7-9.7V81.4 M185.2,81.4c-10.5,0-22.1,3-34.1,10.4
					c-24.1,14.8-36.9,39.3-25.2,70.8c8.1,22,28.3,34.3,47.3,34.3c10,0,19.6-3.4,27.2-10.5c17.2-16.1-16.7-28.5,17.9-47.4
					C247.7,123,224.1,81.4,185.2,81.4L185.2,81.4z"/>
			</g>
		</g>
	</g>
	<g id="_x23_5_1_" class="st0">
		<g id="XMLID_55_" class="st7">
			
				<linearGradient id="SVGID_13_" gradientUnits="userSpaceOnUse" x1="77.7343" y1="92.804" x2="312.2578" y2="185.3246" gradientTransform="matrix(1 0 0 -1 0 280)">
				<stop  offset="0" style="stop-color:#39E47A"/>
				<stop  offset="1" style="stop-color:#00C8FF"/>
			</linearGradient>
			<path class="st17" d="M205.6,1.3v4.6l0,0c25.7,0,49.4,9.2,66.7,25.8c25.9,24.9,41.1,72,37.7,117.1c-1.6,20.7-6.8,40-15.6,57.2
				c-9.7,19-23.6,34.9-41.2,47.4c-18,12.7-40.4,19.4-64.8,19.4c-23.2,0-45.6-6.1-63.2-17.1c-18-11.3-29-26.8-31-43.7
				c-3-24.9,5.8-31.5,17-39.9c7.9-5.9,16.8-12.6,21.7-26.4c5.3-14.9,4.8-36.3-1.5-65.3c-3.9-18.1-0.5-34.6,10.1-47.7
				C155,15.9,179,5.9,205.7,5.9L205.6,1.3 M205.6,1.3c-46.7,0-89.7,30.2-78.8,80.1c23.8,109.6-44.9,66.3-37.2,131
				c4.6,39,50.8,64.9,98.8,64.9c23.6,0,47.7-6.3,67.5-20.3c84-59.5,67.4-182.8,19.7-228.7C256.2,9.8,230.4,1.3,205.6,1.3L205.6,1.3z
				"/>
		</g>
		<g id="XMLID_53_" class="st7">
			<g>
				
					<linearGradient id="SVGID_14_" gradientUnits="userSpaceOnUse" x1="178.3383" y1="220.9157" x2="179.2861" y2="60.9142" gradientTransform="matrix(1 0 0 -1 0 280)">
					<stop  offset="0" style="stop-color:#00C8FF"/>
					<stop  offset="1" style="stop-color:#4E7DFF"/>
				</linearGradient>
				<path class="st18" d="M176,63.7L176,63.7c0.4,0,0.8,0,1.2,0c20.8,0.2,40.3,9,55,24.7c14.8,15.8,23,36.8,22.9,59
					c0,16.3-3.3,33.8-8.8,46.8c-5.4,12.7-12.2,20-18.8,20c-6,0-12.8-5.9-19.5-17.1c-9.8-16.3-23.8-18.4-34.9-18.4
					c-5.1,0-10.3,0.5-15.4,1c-5,0.5-10.1,1-14.9,1c-14.2,0-28.6-3.8-37.6-31.4c-6-18.3-2.1-40.2,10.1-57.1
					C128.7,73.8,150.2,63.7,176,63.7 M176,59.1c-61.9,0-87.3,54.2-75.1,91.6c9.5,29.1,25.2,34.5,42,34.5c10.1,0,20.5-2,30.3-2
					c12,0,23,3,30.9,16.2c8.2,13.7,16.2,19.4,23.4,19.4c18.5,0,32.1-37.2,32.2-71.4c0.1-48.6-37-87.8-82.5-88.3
					C176.8,59.1,176.4,59.1,176,59.1L176,59.1z"/>
			</g>
		</g>
		<g id="XMLID_51_" class="st7">
			<g>
				
					<linearGradient id="SVGID_15_" gradientUnits="userSpaceOnUse" x1="135.4101" y1="176.3764" x2="229.1196" y2="124.3369" gradientTransform="matrix(1 0 0 -1 0 280)">
					<stop  offset="0" style="stop-color:#5725B6"/>
					<stop  offset="1" style="stop-color:#4E7DFF"/>
				</linearGradient>
				<path class="st19" d="M180.7,81.4V86c8.3,0,16.3,1.7,23.3,5c23.8,11.2,30.8,32.7,27.1,49c-2.3,10.5-8.7,17.2-16.3,17.2
					c-1.5,0-3-0.2-4.6-0.7c-3.8-1.2-7.5-1.8-11.2-1.8c-8.5,0-15.3,3.1-21.4,5.9c-5.3,2.4-10.4,4.7-15.9,4.7c-1.9,0-3.8-0.3-5.8-0.8
					c-11.1-3-19.7-11.7-23-23.3c-3.9-13.7,0.3-29,11.4-40.8c8.6-9.2,21.9-14.5,36.5-14.5L180.7,81.4 M180.7,81.4
					c-14.7,0-29.7,5.1-39.9,16c-25.1,26.9-14.1,64.1,13.8,71.6c2.5,0.7,4.8,1,7,1c13.4,0,22.7-10.6,37.4-10.6c3,0,6.3,0.5,9.8,1.6
					c2,0.6,4,0.9,5.9,0.9c25.5,0,35.6-54-8.9-75C198.3,83.3,189.6,81.4,180.7,81.4L180.7,81.4z"/>
			</g>
		</g>
	</g>
	<g id="_x23_6_1_" class="st0">
		<g id="XMLID_49_" class="st7">
			
				<linearGradient id="SVGID_16_" gradientUnits="userSpaceOnUse" x1="211.2939" y1="31.1108" x2="149.2184" y2="280.1299" gradientTransform="matrix(1 0 0 -1 0 280)">
				<stop  offset="0" style="stop-color:#39E47A"/>
				<stop  offset="1" style="stop-color:#00C8FF"/>
			</linearGradient>
			<path class="st20" d="M167.7,5.3c26.9,0,52.8,6,75,17.5c25.3,13,44.8,32.4,57.9,57.4c20.9,39.9,12,88-6.1,118
				c-14.5,23.9-34.8,37.6-55.8,37.6c-0.2,0-0.4,0-0.6,0c-25.4-0.3-30.9-10.1-37.8-22.4c-4.2-7.6-9.1-16.2-19-22.8
				c-11-7.2-26.8-10.7-48.2-10.7c-6.7,0-14.1,0.3-21.9,1c-2.1,0.2-4.2,0.3-6.2,0.3c-13.3,0-25-3.9-34.6-11.5
				c-8.8-7-15.7-17.1-20.1-29.3c-6.1-17.4-6.8-37.7-1.8-57.2c5.4-21,16.5-38.8,32.3-51.5C101.3,15.2,133.7,5.3,167.7,5.3 M167.7,0.7
				C132.4,0.7,99.2,11,78,28.1C18.6,76,31.8,185.8,105,185.8c2.1,0,4.3-0.1,6.6-0.3c8-0.7,15.1-1,21.5-1c84.7,0,43.7,55.2,105,55.9
				c0.2,0,0.4,0,0.6,0c58.9,0,100.7-96.1,66-162.3C275.8,22.9,219.5,0.7,167.7,0.7L167.7,0.7z"/>
		</g>
		<g id="XMLID_47_" class="st7">
			<g>
				
					<linearGradient id="SVGID_17_" gradientUnits="userSpaceOnUse" x1="185.8113" y1="213.4627" x2="186.6966" y2="64.0069" gradientTransform="matrix(1 0 0 -1 0 280)">
					<stop  offset="0" style="stop-color:#00C8FF"/>
					<stop  offset="1" style="stop-color:#4E7DFF"/>
				</linearGradient>
				<path class="st21" d="M209.1,71c11,0,22.2,5.4,30.7,14.9c7,7.8,15.3,21.9,15.4,44.8c0,18.1-2.4,31.8-7.7,43.1
					c-6.5,14.1-17.5,24.4-33.5,31.5c-8.9,4-18.6,6-28.6,6c-25.2,0-49.9-12.8-61.5-31.9c-5.6-9.1-10.4-23.6-1.7-40.4
					c4.3-8.3,10.7-12.2,19.6-17.7c11.3-6.9,26.7-16.5,45.2-39.9C192.3,74.7,200.1,71,209.1,71L209.1,71 M209.1,66.4
					c-9.9,0-19.3,4-25.7,12.2C150.7,120.1,129,116,118.1,137c-20.3,39.2,21.6,79,67.2,79c10.2,0,20.6-2,30.5-6.4
					c36.8-16.4,44-47.4,43.9-78.9C259.7,88.9,232.7,66.4,209.1,66.4L209.1,66.4z"/>
			</g>
		</g>
		<g id="XMLID_45_" class="st7">
			<g>
				
					<linearGradient id="SVGID_18_" gradientUnits="userSpaceOnUse" x1="170.8088" y1="199.2295" x2="199.2116" y2="111.5538" gradientTransform="matrix(1 0 0 -1 0 280)">
					<stop  offset="0" style="stop-color:#5725B6"/>
					<stop  offset="1" style="stop-color:#4E7DFF"/>
				</linearGradient>
				<path class="st22" d="M178.6,81.4V86c21.1,0,43.6,14.1,50.1,31.3c4.7,12.6,4.3,23.4-1.1,31.3c-5.9,8.5-17.4,13.4-31.6,13.4
					c-1.7,0-3.5-0.1-5.3-0.2c-22.3-1.8-38.4-11.2-47.9-27.7c-5.6-9.9-6-20.8-0.9-30c6-10.8,18.7-17.4,34.9-18c0.6,0,1.3,0,1.9,0
					L178.6,81.4 M178.6,81.4c-0.7,0-1.4,0-2.1,0c-37.2,1.5-51.4,31-37.8,54.9c10.6,18.7,28.9,28.2,51.5,30c1.9,0.2,3.8,0.2,5.7,0.2
					c28.5,0,49.3-18.4,37.1-50.9C225.9,96.9,202,81.4,178.6,81.4L178.6,81.4z"/>
			</g>
		</g>
	</g>
	<g id="concrete_1_">
		<path id="XMLID_43_" class="st23" d="M13.3,172C4.5,163,0,153,0,139.1c0-13.6,4.8-23.9,13.5-32.9c8.9-8.9,19.9-13.2,33-13.3
			c17.3-0.1,31.7,9.5,39.5,22.4l-19.6,11.5c-4.4-7-11.3-11.1-20.2-11.1c-13.5,0-23.2,9.8-23.2,23.3c0,6.8,2.2,12.5,6.7,16.9
			c4.3,4.2,9.7,6.4,16.5,6.4c9.1,0,16.1-4.3,20.3-11.1l19.7,11.4c-7.7,13.8-22.7,22.5-39.7,22.5C33,185.2,22.2,180.9,13.3,172z"/>
		<path id="XMLID_40_" class="st24" d="M211.7,106.4c-8.9-8.9-19.9-13.5-32.9-13.5c-12.9,0-23.9,4.5-32.9,13.5
			c-8.9,8.9-13.3,19.7-13.3,32.7S137.1,163,146,172c8.9,8.9,19.9,13.3,32.9,13.3c12.9,0,23.9-4.4,32.9-13.3
			c8.9-8.9,13.5-19.9,13.5-32.9S220.7,115.3,211.7,106.4z M195.6,155.8c-4.5,4.4-10,6.6-16.7,6.6s-12.2-2.2-16.7-6.6
			c-4.3-4.4-6.5-10-6.5-16.7c0-6.8,2.2-12.3,6.5-16.7c4.5-4.4,10-6.6,16.7-6.6s12.2,2.2,16.7,6.6s6.7,10,6.7,16.7
			C202.3,145.9,200.1,151.4,195.6,155.8z"/>
		<path id="XMLID_38_" class="st23" d="M344.1,103.7c6.3,6.5,9.4,15.2,9.4,26.6V184H331v-50.9c0-11.7-6.8-18-17.3-18
			c-11.7,0-19.2,7.2-19.2,21.7V184H272V96.6h22.5v9.8c5.4-8.2,14.2-12.2,26-12.2C330.1,94.1,338,97.3,344.1,103.7z"/>
		<path id="XMLID_36_" class="st23" d="M413.6,172c-8.7-8.9-13.3-18.9-13.3-32.9c0-13.6,4.8-23.9,13.5-32.9
			c8.9-8.9,19.9-13.2,33-13.3c17.3-0.1,31.7,9.5,39.5,22.4l-19.6,11.5c-4.4-7-11.3-11.1-20.2-11.1c-13.5,0-23.2,9.8-23.2,23.3
			c0,6.8,2.2,12.5,6.7,16.9c4.3,4.2,9.7,6.4,16.5,6.4c9.1,0,16.1-4.3,20.3-11.1l19.7,11.4c-7.7,13.8-22.7,22.5-39.7,22.5
			C433.3,185.2,422.5,180.9,413.6,172z"/>
		<path id="XMLID_34_" class="st23" d="M558.7,106.4c4.7-9.8,17.2-12.1,26.6-12.1v25.3c-6.8-0.9-13.1,1-18.5,4.6
			c-5.4,3.7-8,9.6-8,18V184h-22.5V96.5h22.5L558.7,106.4L558.7,106.4z"/>
		<path id="XMLID_31_" class="st23" d="M652.3,148.3c1.6,11,11.4,18,24.9,18c8.6,0,14.9-4.3,17.7-6.7l16.1,11.6
			c-8.1,9.1-20,13.9-34.3,13.9c-14.5,0-26-4.4-34.8-13.1c-8.7-8.7-13.1-19.7-13.1-33c0-13.1,4.4-24.1,12.9-32.9
			c8.6-8.9,19.7-13.3,33.2-13.3c12.8,0,23.4,4.4,31.6,13.3c8.4,8.9,12.6,19.7,12.6,32.9c0,3-0.3,5.9-0.9,9.3H652.3z M696.5,130.9
			c-1.7-15.1-12.8-19.7-21.7-19.7c-10,0-21.2,4.6-22.9,19.7H696.5z"/>
		<path id="XMLID_28_" class="st23" d="M893.8,148.3c1.6,11,11.4,18,24.9,18c8.6,0,14.9-4.3,17.7-6.7l16.1,11.6
			c-8.1,9.1-20,13.9-34.3,13.9c-14.5,0-26-4.4-34.8-13.1c-8.7-8.7-13.1-19.7-13.1-33c0-13.1,4.4-24.1,12.9-32.9
			c8.6-8.9,19.7-13.3,33.2-13.3c12.8,0,23.4,4.4,31.6,13.3c8.4,8.9,12.6,19.7,12.6,32.9c0,3-0.3,5.9-0.9,9.3H893.8z M938,130.9
			c-1.7-15.1-12.8-19.7-21.7-19.7c-10,0-21.2,4.6-22.9,19.7H938z"/>
		<path id="XMLID_26_" class="st23" d="M823.3,119.3h-19.7v35.8c0,9.4,6.8,9.6,19.7,8.9v20.4C792.4,187.9,781,179,781,155v-35.8
			h-15.2V96.6H781V73.8h22.5v22.8h19.7L823.3,119.3L823.3,119.3z"/>
	</g>
	<path id="nucleo_2_" class="st23" d="M195.4,155.6c-4.4,4.3-9.9,6.5-16.5,6.5s-12.1-2.2-16.5-6.5c-4.3-4.3-6.5-9.9-6.5-16.5
		c0-6.7,2.2-12.2,6.5-16.5c4.4-4.3,9.9-6.5,16.5-6.5s12.1,2.2,16.5,6.5s6.6,9.9,6.6,16.5C202,145.8,199.8,151.3,195.4,155.6z"/>
</g>
</svg>
