<?xml version="1.0" encoding="UTF-8" standalone="no"?>
<svg
   xmlns:dc="http://purl.org/dc/elements/1.1/"
   xmlns:cc="http://creativecommons.org/ns#"
   xmlns:rdf="http://www.w3.org/1999/02/22-rdf-syntax-ns#"
   xmlns:svg="http://www.w3.org/2000/svg"
   xmlns="http://www.w3.org/2000/svg"
   viewBox="0 0 259.12 113.2"
   height="113.2"
   width="259.12"
   xml:space="preserve"
   id="svg2"
   version="1.1"><metadata
     id="metadata8"><rdf:RDF><cc:Work
         rdf:about=""><dc:format>image/svg+xml</dc:format><dc:type
           rdf:resource="http://purl.org/dc/dcmitype/StillImage" /></cc:Work></rdf:RDF></metadata><defs
     id="defs6"><clipPath
       id="clipPath20"
       clipPathUnits="userSpaceOnUse"><path
         id="path18"
         d="M 217.82,217.566 H 1725.49 V 632.203 H 217.82 Z" /></clipPath><linearGradient
       id="linearGradient26"
       spreadMethod="pad"
       gradientTransform="matrix(-1.81e-5,414.629,414.629,1.81e-5,971.655,217.568)"
       gradientUnits="userSpaceOnUse"
       y2="0"
       x2="1"
       y1="0"
       x1="0"><stop
         id="stop22"
         offset="0"
         style="stop-opacity:1;stop-color:#ed1c24" /><stop
         id="stop24"
         offset="1"
         style="stop-opacity:1;stop-color:#c81e25" /></linearGradient></defs><g
     transform="matrix(1.3333333,0,0,-1.3333333,0,113.2)"
     id="g10"><g
       transform="scale(0.1)"
       id="g12"><g
         id="g14"><g
           clip-path="url(#clipPath20)"
           id="g16"><path
             id="path28"
             style="fill:url(#linearGradient26);fill-opacity:1;fill-rule:nonzero;stroke:none"
             d="M 217.82,217.566 H 1725.49 V 632.203 H 217.82 Z" /></g></g><path
         id="path30"
         style="fill:#ffffff;fill-opacity:1;fill-rule:nonzero;stroke:none"
         d="m 1411.39,379.414 c -20.41,0 -37.58,13.731 -42.91,32.352 h 113.2 l 15.7,24.367 h -128.9 c 5.17,18.738 22.5,32.566 42.91,32.566 h 77.91 l 15.58,24.27 h -95.27 c -38.15,0 -68.97,-30.86 -68.97,-68.938 0,-38.054 30.82,-68.933 68.97,-68.933 h 81.76 l 15.54,24.316 z m -324.32,-24.316 c -38.07,0 -68.94,30.879 -68.94,68.933 0,38.078 30.87,68.938 68.94,68.938 h 95.23 l -15.56,-24.27 h -77.93 c -24.61,0 -44.61,-20.058 -44.61,-44.668 0,-24.648 20,-44.617 44.61,-44.617 h 95.64 l -15.64,-24.316 h -81.74 m -503.465,24.316 c 24.676,0 44.754,19.969 44.754,44.617 0,24.61 -20.078,44.668 -44.754,44.668 h -76.527 c -24.59,0 -44.59,-20.058 -44.59,-44.668 0,-24.648 20,-44.617 44.59,-44.617 h 76.527 m -78.234,-24.316 c -38.137,0 -68.953,30.879 -68.953,68.933 0,38.078 30.816,68.938 68.953,68.938 h 80.039 c 38.074,0 68.899,-30.86 68.899,-68.938 0,-38.054 -30.825,-68.933 -68.899,-68.933 h -80.039 m 279.063,44.597 c 25.847,0 46.64,20.95 46.64,46.645 0,25.719 -20.793,46.629 -46.64,46.629 H 668.469 V 355.098 h 26.551 v 113.601 h 87.714 c 12.215,0 22.266,-10.039 22.266,-22.359 0,-12.289 -10.051,-22.309 -22.266,-22.309 l -74.707,0.078 79.004,-69.011 h 38.528 l -53.188,44.597 h 12.063 m 438.556,-20.261 v 113.535 h -26.49 v -124.59 c 0,-3.527 1.37,-6.731 3.87,-9.316 2.64,-2.461 6.15,-3.965 9.71,-3.965 h 120.9 l 15.7,24.336 h -123.69 m -324.482,24.304 h 70.816 l -37.32,60.285 -68.723,-108.925 h -31.203 l 83.418,130.73 c 3.645,5.305 9.738,8.43 16.508,8.43 6.394,0 12.437,-3.047 16.043,-8.184 l 83.773,-130.976 h -31.35 l -14.728,24.336 h -71.66 l -15.574,24.304" /><path
         id="path32"
         style="fill:#ffffff;fill-opacity:1;fill-rule:nonzero;stroke:none"
         d="m 1531.13,479.375 c 1.1,0 2.25,0.051 2.85,1.035 0.22,0.43 0.36,0.938 0.36,1.445 0,1.036 -0.45,1.786 -1.25,2.208 -0.86,0.222 -1.66,0.222 -3.32,0.222 h -0.82 v -4.91 z m -1.36,7.781 c 2.46,0 3.49,0 4.57,-0.445 3.14,-1.02 3.43,-3.82 3.43,-4.856 0,-0.183 0,-0.847 -0.19,-1.445 -0.18,-0.683 -0.49,-1.926 -2.15,-2.98 -0.29,-0.106 -0.29,-0.164 -0.8,-0.352 l 4.06,-7.273 h -3.9 l -3.56,6.64 h -2.28 v -6.64 h -3.48 v 17.351 h 4.3 m 1.46,-24.687 c 8.65,0 15.51,6.996 15.51,15.508 0,8.593 -6.86,15.48 -15.51,15.48 -8.46,0 -15.35,-6.887 -15.35,-15.48 0,-8.512 6.89,-15.508 15.35,-15.508 m -12.05,15.508 c 0,6.757 5.45,12.296 12.05,12.296 6.86,0 12.38,-5.539 12.38,-12.296 0,-6.582 -5.52,-12.149 -12.38,-12.149 -6.6,0 -12.05,5.567 -12.05,12.149" /></g></g></svg>