<?xml version="1.0" encoding="UTF-8" standalone="no"?>
<svg
   xmlns:dc="http://purl.org/dc/elements/1.1/"
   xmlns:cc="http://creativecommons.org/ns#"
   xmlns:rdf="http://www.w3.org/1999/02/22-rdf-syntax-ns#"
   xmlns:svg="http://www.w3.org/2000/svg"
   xmlns="http://www.w3.org/2000/svg"
   xmlns:sodipodi="http://sodipodi.sourceforge.net/DTD/sodipodi-0.dtd"
   xmlns:inkscape="http://www.inkscape.org/namespaces/inkscape"
   width="230px"
   height="60px"
   viewBox="0 0 230 60"
   version="1.1"
   id="svg3407"
   inkscape:version="0.91 r13725"
   sodipodi:docname="logo-light.svg">
  <metadata
     id="metadata3438">
    <rdf:RDF>
      <cc:Work
         rdf:about="">
        <dc:format>image/svg+xml</dc:format>
        <dc:type
           rdf:resource="http://purl.org/dc/dcmitype/StillImage" />
      </cc:Work>
    </rdf:RDF>
  </metadata>
  <sodipodi:namedview
     pagecolor="#ffffff"
     bordercolor="#666666"
     borderopacity="1"
     objecttolerance="10"
     gridtolerance="10"
     guidetolerance="10"
     inkscape:pageopacity="0"
     inkscape:pageshadow="2"
     inkscape:window-width="1352"
     inkscape:window-height="783"
     id="namedview3436"
     showgrid="false"
     inkscape:zoom="2.8284271"
     inkscape:cx="175.53619"
     inkscape:cy="2.003352"
     inkscape:window-x="0"
     inkscape:window-y="0"
     inkscape:window-maximized="0"
     inkscape:current-layer="svg3407" />
  <!-- Generator: Sketch 39.1 (31720) - http://www.bohemiancoding.com/sketch -->
  <title
     id="title3409">logo_java</title>
  <desc
     id="desc3411">Created with Sketch.</desc>
  <defs
     id="defs3413" />
  <path
     d="m 4.53573,44.869661 c 0,-2.559138 9.667944,-4.633661 21.594003,-4.633661 3.46679,0 6.741491,0.175015 9.644294,0.486462 -3.341861,-0.509724 -7.430047,-0.808985 -11.844098,-0.808985 -11.30051,0 -20.4615146,1.965415 -20.4615146,4.391077 0,0.495138 0.3825511,0.970523 1.0859106,1.414338 0.2419152,0.152677 0.3217111,0.0061 0.1772841,-0.22283 C 4.6025275,45.290954 4.53573,45.081969 4.53573,44.869661"
     id="Fill-1"
     inkscape:connector-curvature="0"
     style="fill:#0d8b42;fill-rule:evenodd;stroke:none;stroke-width:1" />
  <path
     d="m 59.868242,27.796615 c 0,-4.937354 2.49967,-7.793169 6.19321,-7.793169 l 0,22.9032 c 0,1.590831 -0.248053,2.942954 -0.742535,4.056554 -0.494302,1.113231 -1.17365,2.023938 -2.035879,2.732492 -0.862952,0.708739 -1.881704,1.221785 -3.054812,1.539508 -1.17383,0.318092 -2.453634,0.477415 -3.838328,0.477415 -0.481484,0 -1.081939,-0.04301 -1.80281,-0.130154 -0.721594,-0.08714 -1.40708,-0.216738 -2.057363,-0.390276 -0.02907,-0.201785 -0.05001,-0.404677 -0.06373,-0.6072 -0.01462,-0.202154 -0.02076,-0.419262 -0.02076,-0.6504 0,-1.32997 0.238665,-2.660677 0.719968,-3.990462 0.311962,0.05797 0.651185,0.129415 1.01821,0.215816 0.367567,0.08732 0.749938,0.130338 1.146029,0.130338 0.480039,0 0.989686,-0.0288 1.527135,-0.08622 0.536546,-0.05815 1.024709,-0.231693 1.463226,-0.520616 0.438336,-0.289661 0.805361,-0.716123 1.103061,-1.279569 0.297339,-0.564185 0.445377,-1.367446 0.445377,-2.407754 l 0,-14.199508 z m 19.894278,5.434893 c 0,-0.69397 -0.113737,-1.257785 -0.339404,-1.691631 -0.226209,-0.433477 -0.537268,-0.772985 -0.933359,-1.02 -0.396272,-0.244985 -0.883713,-0.411692 -1.463226,-0.498462 -0.579875,-0.0864 -1.223658,-0.1296 -1.929906,-0.1296 -1.527135,0 -3.153925,0.303139 -4.878203,0.910708 -0.396091,-0.7512 -0.693249,-1.460123 -0.890392,-2.126031 -0.198948,-0.6648 -0.297159,-1.459569 -0.297159,-2.385784 1.244419,-0.433477 2.488116,-0.7512 3.732536,-0.953723 1.244238,-0.201785 2.402723,-0.303324 3.479066,-0.303324 2.940353,0 5.238186,0.722585 6.891876,2.167754 1.655133,1.447016 2.481797,3.760616 2.481797,6.9408 l 0,13.013908 c -0.989325,0.318831 -2.191499,0.622708 -3.604898,0.910708 -1.414843,0.289107 -3.011664,0.434215 -4.793532,0.434215 -1.442645,0 -2.764694,-0.130338 -3.966868,-0.390831 -1.201452,-0.259569 -2.233925,-0.694154 -3.096154,-1.300984 -0.862952,-0.606831 -1.527677,-1.387939 -1.993815,-2.3424 -0.46668,-0.954831 -0.699929,-2.125477 -0.699929,-3.513785 0,-1.387569 0.290118,-2.552307 0.869631,-3.491446 0.579513,-0.939877 1.328728,-1.692 2.248728,-2.256 0.918014,-0.564 1.943085,-0.968492 3.075393,-1.214954 1.12996,-0.245723 2.261727,-0.368677 3.393132,-0.368677 0.819984,0 1.724458,0.04375 2.714686,0.12997 l 0,-0.520431 z m 0,4.467877 c -0.339404,-0.05723 -0.706971,-0.10837 -1.103062,-0.15157 -0.396091,-0.0432 -0.749215,-0.06517 -1.060274,-0.06517 -1.385777,0 -2.481978,0.253108 -3.287339,0.759139 -0.806084,0.5064 -1.209035,1.323692 -1.209035,2.450584 0,0.753231 0.154898,1.330339 0.46668,1.735385 0.310879,0.405969 0.685667,0.701907 1.123822,0.889477 0.439239,0.188307 0.905197,0.302954 1.40022,0.346338 0.494482,0.04375 0.925236,0.06535 1.293705,0.06535 0.423893,0 0.84905,-0.03545 1.272221,-0.108738 0.423713,-0.07126 0.79146,-0.136431 1.103062,-0.194585 l 0,-5.726215 z m 5.047723,-12.101724 c 0.678627,-0.145292 1.307967,-0.231876 1.887661,-0.260676 0.579694,-0.02898 1.081939,-0.04394 1.506374,-0.04394 0.565612,0 1.130863,0.01495 1.696656,0.04394 0.565612,0.0288 1.087716,0.102092 1.569019,0.216738 l 4.793713,16.700492 4.708324,-16.700492 c 0.48058,-0.08714 0.9895,-0.152308 1.52767,-0.195508 0.53745,-0.04338 1.0749,-0.06517 1.61145,-0.06517 0.42443,0 0.91205,0.01495 1.46395,0.04394 0.55062,0.0288 1.18014,0.115384 1.88784,0.260676 l -8.314305,22.38277 c -0.537268,0.0864 -1.103242,0.144184 -1.697198,0.173723 -0.593595,0.02806 -1.088799,0.04302 -1.48489,0.04302 -0.423713,0 -0.905016,-0.01495 -1.441742,-0.04302 -0.53745,-0.02954 -1.046374,-0.101723 -1.526955,-0.216739 L 84.810243,25.597661 Z m 33.807477,7.633847 c 0,-0.69397 -0.11284,-1.257785 -0.33869,-1.691631 -0.22729,-0.433477 -0.53744,-0.772985 -0.93353,-1.02 -0.39682,-0.244985 -0.88516,-0.411692 -1.46377,-0.498462 -0.5797,-0.0864 -1.2233,-0.1296 -1.92937,-0.1296 -1.52767,0 -3.15446,0.303139 -4.87802,0.910708 -0.39681,-0.7512 -0.69325,-1.460123 -0.89129,-2.126031 -0.19877,-0.6648 -0.29716,-1.459569 -0.29716,-2.385784 1.24442,-0.433477 2.48811,-0.7512 3.73344,-0.953723 1.24369,-0.201785 2.40218,-0.303324 3.47834,-0.303324 2.94107,0 5.23891,0.722585 6.8926,2.167754 1.65513,1.447016 2.48198,3.760616 2.48198,6.9408 l 0,13.013908 c -0.99059,0.318831 -2.19259,0.622708 -3.60599,0.910708 -1.41412,0.289107 -3.01166,0.434215 -4.79281,0.434215 -1.44318,0 -2.76433,-0.130338 -3.9665,-0.390831 -1.20254,-0.259569 -2.23411,-0.694154 -3.09634,-1.300984 -0.86367,-0.606831 -1.52786,-1.387939 -1.99453,-2.3424 -0.46686,-0.954831 -0.69939,-2.125477 -0.69939,-3.513785 0,-1.387569 0.28957,-2.552307 0.86909,-3.491446 0.57969,-0.939877 1.32891,-1.692 2.24873,-2.256 0.91873,-0.564 1.94362,-0.968492 3.07539,-1.214954 1.13086,-0.245723 2.26154,-0.368677 3.39403,-0.368677 0.81999,0 1.72356,0.04375 2.71379,0.12997 l 0,-0.520431 z m 0,4.467877 c -0.33869,-0.05723 -0.70625,-0.10837 -1.10325,-0.15157 -0.39627,-0.0432 -0.74939,-0.06517 -1.06009,-0.06517 -1.38505,0 -2.48126,0.253108 -3.28662,0.759139 -0.80608,0.5064 -1.20921,1.323692 -1.20921,2.450584 0,0.753231 0.15526,1.330339 0.46614,1.735385 0.3116,0.405969 0.68548,0.701907 1.12382,0.889477 0.43924,0.188307 0.9052,0.302954 1.4004,0.346338 0.49502,0.04375 0.92578,0.06535 1.29352,0.06535 0.42444,0 0.84905,-0.03545 1.27204,-0.108738 0.42444,-0.07126 0.79309,-0.136431 1.10325,-0.194585 l 0,-5.726215 z"
     id="Combined-Shape"
     inkscape:connector-curvature="0"
     style="fill:#ffffff;fill-rule:evenodd;stroke:none;stroke-width:1" />
  <path
     d="M 23.485455,51.239631 C 11.773689,51.239631 1.4494297,49.096 2.1752997,44.520378 L 45.12405,45.088062 c -0.388508,3.416492 -9.926468,6.151569 -21.638595,6.151569 z"
     id="Fill-6"
     inkscape:connector-curvature="0"
     style="fill:#005b9c;fill-rule:evenodd;stroke:none;stroke-width:1" />
  <path
     d="m 1.8335008,44.349969 c 0,2.718277 9.6939402,4.9224 21.6519542,4.9224 11.958195,0 21.652857,-2.204123 21.652857,-4.9224 0,-2.719015 -9.694662,-4.922584 -21.652857,-4.922584 -11.958014,0 -21.6519542,2.203569 -21.6519542,4.922584"
     id="Fill-8"
     inkscape:connector-curvature="0"
     style="fill:#153871;fill-rule:evenodd;stroke:none;stroke-width:1" />
  <path
     d="m 7.6366816,21.304246 -0.1777491,0 c -0.00181,0.132369 -0.00379,0.264369 -0.00379,0.395815 0,13.223631 7.1644815,23.943139 16.0008865,23.943139 8.836947,0 16.000887,-10.719508 16.000887,-23.943139 0,-0.131446 -0.0018,-0.263446 -0.0038,-0.395815 l -0.901067,0 c 0.01583,-0.03874 0.02385,-0.07777 0.02385,-0.117046 0,-1.1448 -6.828863,-2.074339 -15.253763,-2.074339 -8.424899,0 -15.7086274,0.870444 -15.7086274,2.074339 0,0.03938 0.00779,0.0784 0.023162,0.117046 z"
     id="path3423"
     inkscape:connector-curvature="0"
     style="fill:#005b9c;fill-rule:evenodd;stroke:none;stroke-width:1" />
  <path
     d="m 37.666201,21.899077 c -2.112787,0.795692 -7.664199,1.363384 -14.180746,1.363384 -6.515824,0 -12.067056,-0.567692 -14.1800233,-1.363384 2.1129673,-0.795877 7.6641993,-1.363754 14.1800233,-1.363754 6.516547,0 12.067959,0.567877 14.180746,1.363754"
     id="Fill-13"
     inkscape:connector-curvature="0"
     style="fill:#2d2118;fill-rule:evenodd;stroke:none;stroke-width:1" />
  <path
     d="m 15.06482,41.555077 -0.553517,0 L 14.169011,41.1096 C 12.074639,38.386523 9.0068289,36.956123 6.2988226,35.694092 5.6489011,35.391138 5.0349058,35.105354 4.4544898,34.810708 2.1573783,33.644861 0.4316562,31.282892 0.15905024,28.934215 c -0.20490581,-1.774338 0.43869701,-3.39803 1.81328096,-4.572 0.7604082,-0.650215 1.8840503,-1.024246 3.0817112,-1.024246 1.9994113,0 4.1947017,1.041231 5.0054786,3.339877 3.320919,0.487569 6.801429,3.598708 6.801429,7.516062 0,1.079815 0.282896,2.113477 0.533297,3.024553 0.349152,1.277724 0.678806,2.482339 -0.01968,3.425908 -0.675918,0.910708 -1.905714,0.910708 -2.309748,0.910708 l 0,0 z M 5.0540424,25.668554 c -0.6621978,0 -1.2682496,0.180184 -1.6206515,0.481292 -0.7853218,0.671631 -1.1254474,1.516246 -1.0111695,2.509662 0.1798116,1.550769 1.4603375,3.259015 3.0452433,4.0632 0.5468367,0.277661 1.1438618,0.556246 1.7764521,0.851077 2.6251413,1.223446 5.8521822,2.727138 8.2523782,5.525169 -0.04441,-0.325846 -0.18613,-0.845354 -0.297881,-1.251323 -0.274411,-1.004123 -0.616522,-2.254339 -0.616522,-3.653723 0,-2.909539 -2.961295,-5.251569 -5.4129438,-5.251569 l -0.9566484,0 -0.1653689,-0.963324 C 7.7528414,26.274092 6.2513422,25.668554 5.0540424,25.668554 l 0,0 z"
     id="Fill-14"
     inkscape:connector-curvature="0"
     style="fill:#005b9c;fill-rule:evenodd;stroke:none;stroke-width:1" />
  <path
     d="m 126.84735,25.553723 c 0.39609,-0.08714 0.79092,-0.152308 1.18791,-0.195508 0.39609,-0.04338 0.83352,-0.06517 1.31501,-0.06517 0.4804,0 0.90357,0.02179 1.27186,0.06517 0.36865,0.0432 0.74957,0.10837 1.14639,0.195508 0.0845,0.145108 0.16193,0.354092 0.23252,0.628615 0.0706,0.275816 0.1345,0.564185 0.19191,0.867693 0.0562,0.303692 0.10525,0.600369 0.14822,0.889477 0.0415,0.289292 0.0774,0.535384 0.10543,0.736984 0.28236,-0.433292 0.62248,-0.867323 1.01857,-1.301169 0.39447,-0.433662 0.85537,-0.823938 1.37874,-1.170831 0.52264,-0.347261 1.10938,-0.629353 1.76038,-0.846277 0.65011,-0.216553 1.37116,-0.324554 2.16334,-0.324554 2.4883,0 4.36133,0.6936 5.61965,2.081539 1.25905,1.388677 1.88839,3.571938 1.88839,6.550523 l 0,14.314708 c -1.01785,0.173723 -2.02198,0.260492 -3.01239,0.260492 -0.9895,0 -1.99291,-0.08677 -3.01076,-0.260492 l 0,-12.666462 c 0,-1.56203 -0.23343,-2.761661 -0.70029,-3.600738 -0.46668,-0.838523 -1.28053,-1.2576 -2.43991,-1.2576 -0.48131,0 -0.97561,0.072 -1.48453,0.216738 -0.50911,0.145662 -0.96875,0.426831 -1.3773,0.846277 -0.41143,0.419262 -0.74307,1.004308 -0.99726,1.755877 -0.25492,0.752862 -0.38147,1.736123 -0.38147,2.950523 l 0,11.755385 c -1.01875,0.173723 -2.02216,0.260492 -3.01239,0.260492 -0.99059,0 -1.99381,-0.08677 -3.01202,-0.260492 l 0,-22.426708 z m 26.72477,13.100308 c 0.11283,1.73483 0.70625,2.993354 1.78096,3.773723 1.07508,0.781107 2.4883,1.171385 4.24183,1.171385 0.96098,0 1.94434,-0.0936 2.94703,-0.281908 1.00413,-0.18757 1.95861,-0.455262 2.86435,-0.802339 0.31178,0.578954 0.57969,1.272739 0.80608,2.081723 0.22657,0.809723 0.35312,1.677047 0.38219,2.602893 -2.2054,0.867323 -4.69514,1.301538 -7.46651,1.301538 -2.03679,0 -3.78255,-0.289846 -5.23801,-0.867508 -1.45637,-0.578584 -2.64554,-1.380923 -3.56302,-2.407384 -0.92054,-1.026462 -1.59916,-2.2488 -2.03678,-3.665908 -0.43906,-1.417108 -0.65786,-2.964554 -0.65786,-4.6416 0,-1.648246 0.22567,-3.194954 0.6788,-4.640861 0.45278,-1.446277 1.12527,-2.703877 2.01584,-3.773908 0.89058,-1.070031 1.99292,-1.916308 3.30883,-2.538277 1.31356,-0.620677 2.84882,-0.931939 4.60162,-0.931939 1.52768,0 2.88439,0.274339 4.07194,0.82357 1.18755,0.549784 2.19872,1.300984 3.03387,2.25563 0.83298,0.954647 1.4625,2.090031 1.8873,3.405785 0.42425,1.315754 0.6362,2.725662 0.6362,4.2288 0,0.549785 -0.0215,1.092369 -0.0637,1.626831 -0.043,0.535569 -0.0921,0.962031 -0.14822,1.279754 l -14.08271,0 z m 8.61128,-4.294339 c -0.0583,-1.388861 -0.4322,-2.509292 -1.12545,-3.361661 -0.69325,-0.852923 -1.66127,-1.279939 -2.90497,-1.279939 -1.41502,0 -2.48974,0.405416 -3.22433,1.214585 -0.73622,0.809723 -1.17383,1.951938 -1.31501,3.427015 l 8.56976,0 z m 8.65208,-1.930154 c 0,-3.893538 2.86976,-6.875815 5.89677,-6.875815 l 0,22.426708 c -1.01857,0.173723 -2.00826,0.260492 -2.97032,0.260492 -0.93191,0 -1.9077,-0.08677 -2.92645,-0.260492 l 0,-15.550893 z m 8.86547,-6.875815 c 0.42461,-0.08714 0.82702,-0.152308 1.20921,-0.195508 0.38237,-0.04338 0.79851,-0.06517 1.25146,-0.06517 0.42354,0 0.84129,0.02935 1.2511,0.08714 0.40927,0.05889 0.81313,0.130338 1.2094,0.217476 0.085,0.144554 0.16194,0.353908 0.23325,0.628062 0.0699,0.275631 0.13377,0.564369 0.19118,0.867323 0.0569,0.303693 0.10507,0.6072 0.14804,0.911446 0.0422,0.303877 0.0776,0.557539 0.10597,0.759323 0.62212,-0.896307 1.38488,-1.698461 2.29008,-2.407384 0.90573,-0.708554 2.03768,-1.063385 3.39403,-1.063385 0.28254,0 0.60894,0.01495 0.97651,0.04394 0.36702,0.0288 0.63566,0.07218 0.80464,0.1296 0.0567,0.289661 0.0998,0.622338 0.12745,0.998215 0.0283,0.375508 0.043,0.766523 0.043,1.1712 0,0.491815 -0.0208,1.0272 -0.0637,1.604677 -0.0431,0.578954 -0.11969,1.127815 -0.23325,1.648246 -0.31106,-0.05741 -0.65732,-0.0864 -1.03879,-0.0864 l -0.70011,0 c -0.4813,0 -1.01875,0.05114 -1.61217,0.151569 -0.59431,0.102093 -1.16011,0.369046 -1.69755,0.802339 -0.53655,0.434215 -0.98265,1.084984 -1.33577,1.952492 -0.35313,0.867508 -0.52969,2.081908 -0.52969,3.644308 l 0,10.6704 c -0.50892,0.08658 -1.01803,0.144369 -1.52768,0.173538 -0.50892,0.02825 -1.00358,0.04375 -1.48489,0.04375 -0.48058,0 -0.96874,-0.01551 -1.46304,-0.04375 -0.49448,-0.02917 -1.01135,-0.08695 -1.54862,-0.173538 l 0,-22.469908 z m 22.73642,22.947323 c -1.78115,0 -3.32958,-0.296861 -4.64531,-0.889477 -1.31501,-0.591877 -2.40291,-1.416738 -3.26586,-2.472184 -0.86367,-1.055446 -1.51305,-2.29237 -1.95157,-3.709108 -0.43834,-1.416554 -0.65786,-2.9496 -0.65786,-4.5984 0,-1.648616 0.21952,-3.195323 0.65786,-4.641231 0.43852,-1.446277 1.0879,-2.696677 1.95157,-3.752308 0.86295,-1.055446 1.95085,-1.886953 3.26586,-2.494153 1.31573,-0.6072 2.86416,-0.910524 4.64531,-0.910524 1.78115,0 3.33645,0.303324 4.66698,0.910524 1.328,0.6072 2.43125,1.438707 3.30864,2.494153 0.87595,1.055631 1.52623,2.306031 1.95085,3.752308 0.42443,1.445908 0.63638,2.992615 0.63638,4.641231 0,1.6488 -0.21195,3.181846 -0.63638,4.5984 -0.42462,1.416738 -1.0749,2.653662 -1.95085,3.709108 -0.87739,1.055446 -1.98064,1.880307 -3.30864,2.472184 -1.33053,0.592616 -2.88583,0.889477 -4.66698,0.889477 z m 0,-4.685354 c 1.584,0 2.72064,-0.599815 3.41552,-1.799261 0.6918,-1.200369 1.03861,-2.928369 1.03861,-5.184554 0,-2.255446 -0.34681,-3.983262 -1.03861,-5.183816 -0.69488,-1.199076 -1.83152,-1.800184 -3.41552,-1.800184 -1.5562,0 -2.67948,0.601108 -3.37255,1.800184 -0.69307,1.200554 -1.03933,2.92837 -1.03933,5.183816 0,2.256185 0.34626,3.984185 1.03933,5.184554 0.69307,1.199446 1.81635,1.799261 3.37255,1.799261 z m 16.58546,-5.595138 c -1.58365,-0.462277 -2.82048,-1.150154 -3.71088,-2.060862 -0.89057,-0.911261 -1.33595,-2.277415 -1.33595,-4.099569 0,-2.197108 0.76926,-3.917908 2.31084,-5.161662 1.54157,-1.243384 3.64118,-1.8648 6.30044,-1.8648 1.1027,0 2.19114,0.101539 3.26514,0.303324 1.07471,0.202523 2.16333,0.506215 3.26657,0.910707 -0.0569,0.751939 -0.19822,1.533416 -0.42389,2.342585 -0.22711,0.809908 -0.49502,1.517908 -0.8059,2.125108 -0.67935,-0.28837 -1.42875,-0.541847 -2.24873,-0.758954 -0.82053,-0.21637 -1.68366,-0.325293 -2.58723,-0.325293 -0.96188,0 -1.712,0.152308 -2.24855,0.455447 -0.53727,0.303692 -0.8068,0.788123 -0.8068,1.453292 0,0.636554 0.19191,1.084431 0.57337,1.344738 0.38165,0.260677 0.92596,0.506216 1.63293,0.737354 l 2.41843,0.737723 c 0.79074,0.231508 1.50619,0.513416 2.14185,0.845908 0.63657,0.332492 1.17997,0.744554 1.63293,1.237108 0.45224,0.491261 0.8059,1.098092 1.06082,1.821231 0.25419,0.722953 0.38165,1.604861 0.38165,2.645538 0,1.070215 -0.21971,2.067877 -0.65715,2.993538 -0.43905,0.925293 -1.07471,1.727816 -1.90932,2.407754 -0.83461,0.679016 -1.8447,1.213662 -3.03225,1.604492 -1.18791,0.390277 -2.53126,0.585785 -4.03077,0.585785 -0.67827,0 -1.30039,-0.02197 -1.866,-0.06535 -0.56507,-0.04338 -1.11028,-0.115938 -1.63311,-0.217107 -0.52355,-0.101354 -1.03861,-0.223939 -1.54844,-0.367939 -0.5082,-0.144923 -1.06099,-0.332492 -1.65531,-0.564 0.0571,-0.781292 0.19209,-1.569046 0.40494,-2.364 0.21176,-0.795508 0.48654,-1.568492 0.82666,-2.321354 0.93354,0.376062 1.81635,0.657785 2.65078,0.846277 0.8346,0.188492 1.70297,0.281354 2.60799,0.281354 0.39681,0 0.82829,-0.03545 1.29515,-0.108738 0.46614,-0.07126 0.89653,-0.2016 1.29424,-0.390093 0.39465,-0.187384 0.72701,-0.433477 0.99583,-0.737169 0.26863,-0.304061 0.40367,-0.700615 0.40367,-1.192431 0,-0.694892 -0.20635,-1.193354 -0.61562,-1.497046 -0.40999,-0.303692 -0.98264,-0.570831 -1.71796,-0.802523 l -2.63037,-0.780369 z m -48.18735,-8.891631 c 1.04402,-3.560123 3.32182,-5.317846 5.89677,-5.891815 l 0,-2.79637 c 0,0 -1.43849,-0.194769 -2.94811,-0.194769 -1.49771,0 -2.94866,0.194769 -2.94866,0.194769 l 0,8.688185 z"
     id="path3427"
     inkscape:connector-curvature="0"
     style="fill:#ffffff;fill-rule:evenodd;stroke:none;stroke-width:1" />
  <path
     d="m 44.735903,19.255015 c -4.506484,-1.456246 -7.579529,-4.107323 -7.579529,-4.107323 -5.88522,19.065416 -8.182151,26.301231 -8.182151,26.301231 -1.266083,4.193354 -4.553964,13.530462 -12.096845,14.935569 -0.394466,0.07385 -0.521201,0.855877 -0.128901,1.029231 18.060958,8.005477 26.857465,-5.016 30.688211,-17.410154 3.75113,-12.137907 2.753862,-8.9088 6.050949,-19.577538 0,0 -3.863783,0.409292 -8.751734,-1.171016"
     id="Fill-24"
     inkscape:connector-curvature="0"
     style="fill:#0d8b42;fill-rule:evenodd;stroke:none;stroke-width:1" />
  <path
     d="m 44.951641,19.930332 c 3.783987,1.340184 7.92726,1.47127 8.429481,0.74785 0.638725,-0.920044 -3.366412,-3.049439 -7.248791,-4.423598 -4.158595,-1.472847 -8.630264,-1.731724 -8.876651,-1.285836 -0.586119,1.060701 4.163096,3.711191 7.695961,4.961584 z"
     id="Fill-26"
     inkscape:connector-curvature="0"
     style="fill:#005b2e;fill-rule:evenodd;stroke:none;stroke-width:1" />
  <path
     d="m 49.946819,21.230769 c 0,0 -0.61252,-0.07156 -0.816693,-0.102092 -0.189229,-0.02815 -0.75711,-0.133339 -0.75711,-0.133339 l 3.591858,-6.25575 c 0.799613,-1.398754 2.523829,-3.258114 3.513254,-3.662665 0,0 0.298109,0.09732 0.578556,0.33967 0.298691,0.257615 0.530618,0.617799 0.530618,0.617799 -1.052308,0.391432 -2.809323,2.388663 -3.519854,3.676977 l -3.120629,5.5194 z"
     id="Fill-29"
     inkscape:connector-curvature="0"
     style="fill:#8a8b8a;fill-rule:evenodd;stroke:none;stroke-width:1" />
  <path
     d=""
     id="Fill-30"
     inkscape:connector-curvature="0"
     style="fill:#9e9f9e;fill-rule:evenodd;stroke:none;stroke-width:1" />
  <path
     d="m 28.918257,31.903015 c -0.04658,-0.1464 -0.178186,-0.247384 -0.32839,-0.252 L 25.029741,31.534154 23.821429,28.108062 C 23.770337,27.963323 23.63584,27.8664 23.485455,27.8664 c -0.150384,0 -0.284882,0.09692 -0.335973,0.241292 l -1.208674,3.426462 -3.560125,0.116861 c -0.150204,0.0046 -0.281452,0.1056 -0.328211,0.252 -0.04604,0.146031 0.0018,0.306462 0.120958,0.40117 l 2.812716,2.233846 -0.991852,3.498646 c -0.04134,0.147508 0.01155,0.306462 0.133233,0.396923 0.12168,0.09101 0.285966,0.09268 0.410354,0.0066 l 2.947574,-2.044985 2.947214,2.044985 c 0.06066,0.04191 0.130165,0.06332 0.200392,0.06332 0.0733,0 0.147316,-0.02326 0.209961,-0.06997 0.12168,-0.09046 0.175118,-0.249415 0.133234,-0.396923 L 25.984042,34.538031 28.7973,32.304185 c 0.118972,-0.09471 0.166813,-0.255139 0.120957,-0.40117"
     id="Fill-32"
     inkscape:connector-curvature="0"
     style="fill:#ffda1a;fill-rule:evenodd;stroke:none;stroke-width:1" />
  <path
     d="M 23.776837,8.0580923 C 21.803783,9.6792 18.869749,11.7168 18.694812,14.198585 c -0.222057,3.153784 5.082025,7.239507 5.082025,7.239507 0,0 -2.998305,-3.416677 -2.998305,-6.675507 0,-3.258646 4.348878,-5.1904619 6.311821,-7.8958158 2.593909,-3.5752615 0.428948,-6.70541535 0.428948,-6.70541535 0.729898,4.16141535 -1.814725,6.31273845 -3.742464,7.89673845 z m 8.338493,0 c 0,0 -8.334161,2.3163697 -8.334161,6.5798767 0,3.537231 2.389906,3.695816 2.389906,5.791385 0,1.6656 -1.041679,2.1672 -1.041679,2.1672 0,0 3.122692,-1.378893 3.093265,-3.572123 -0.02925,-2.193416 -4.377402,-4.272554 -0.935165,-7.383508 2.86146,-2.5866461 4.827834,-3.5828307 4.827834,-3.5828307 z"
     id="path3434"
     inkscape:connector-curvature="0"
     style="fill:#9fa3a7;fill-rule:evenodd;stroke:none;stroke-width:1" />
</svg>
