<?xml version="1.0" encoding="UTF-8" standalone="no"?>
<svg width="230px" height="60px" viewBox="0 0 230 60" version="1.1" xmlns="http://www.w3.org/2000/svg" xmlns:xlink="http://www.w3.org/1999/xlink">
    <!-- Generator: Sketch 39.1 (31720) - http://www.bohemiancoding.com/sketch -->
    <title>logo_java</title>
    <desc>Created with Sketch.</desc>
    <defs></defs>
    <g id="Page-1" stroke="none" stroke-width="1" fill="none" fill-rule="evenodd">
        <g id="Landing-Page-Javaneiros" transform="translate(-60.000000, -24.000000)">
            <g id="Topo">
                <g id="logo_java" transform="translate(60.000000, 24.000000)">
                    <path d="M4.53572998,44.8696615 C4.53572998,42.3105231 14.2036735,40.236 26.1297331,40.236 C29.5965228,40.236 32.8712245,40.4110154 35.7740267,40.7224615 C32.4321664,40.2127385 28.3439796,39.9134769 23.9299294,39.9134769 C12.6294192,39.9134769 3.46841444,41.8788923 3.46841444,44.3045538 C3.46841444,44.7996923 3.85096546,45.2750769 4.55432496,45.7188923 C4.79624019,45.8715692 4.87603611,45.7249846 4.73160911,45.4960615 C4.60252747,45.2909538 4.53572998,45.0819692 4.53572998,44.8696615" id="Fill-1" fill="#0D8B42"></path>
                    <path d="M59.8682418,27.7966154 C59.8682418,22.8592615 62.3679121,20.0034462 66.0614521,20.0034462 L66.0614521,42.9066462 C66.0614521,44.4974769 65.8133987,45.8496 65.3189168,46.9632 C64.8246154,48.0764308 64.1452669,48.9871385 63.2830377,49.6956923 C62.4200863,50.4044308 61.4013344,50.9174769 60.2282261,51.2352 C59.0543956,51.5532923 57.7745918,51.7126154 56.389898,51.7126154 C55.9084144,51.7126154 55.3079592,51.6696 54.5870879,51.5824615 C53.8654945,51.4953231 53.1800078,51.3657231 52.5297253,51.1921846 C52.5006593,50.9904 52.4797174,50.7875077 52.4659969,50.5849846 C52.4513736,50.3828308 52.4452355,50.1657231 52.4452355,49.9345846 C52.4452355,48.6046154 52.6839011,47.2739077 53.1652041,45.9441231 C53.4771664,46.0020923 53.8163893,46.0735385 54.1834144,46.1599385 C54.5509812,46.2472615 54.9333516,46.2902769 55.3294427,46.2902769 C55.8094819,46.2902769 56.3191287,46.2614769 56.8565777,46.2040615 C57.393124,46.1459077 57.8812873,45.9723692 58.3198038,45.6834462 C58.7581397,45.3937846 59.1251648,44.9673231 59.422865,44.4038769 C59.7202041,43.8396923 59.8682418,43.0364308 59.8682418,41.9961231 L59.8682418,27.7966154 Z M79.7625196,33.2315077 C79.7625196,32.5375385 79.6487834,31.9737231 79.4231162,31.5398769 C79.1969074,31.1064 78.8858477,30.7668923 78.4897567,30.5198769 C78.0934851,30.2748923 77.606044,30.1081846 77.0265306,30.0214154 C76.4466562,29.9350154 75.8028728,29.8918154 75.0966248,29.8918154 C73.5694898,29.8918154 71.9427002,30.1949538 70.2184223,30.8025231 C69.8223312,30.0513231 69.5251727,29.3424 69.3280298,28.6764923 C69.1290816,28.0116923 69.0308713,27.2169231 69.0308713,26.2907077 C70.2752904,25.8572308 71.5189874,25.5395077 72.7634066,25.3369846 C74.0076452,25.1352 75.1661303,25.0336615 76.2424725,25.0336615 C79.1828257,25.0336615 81.4806593,25.7562462 83.1343485,27.2014154 C84.7894819,28.6484308 85.616146,30.9620308 85.616146,34.1422154 L85.616146,47.1561231 C84.626821,47.4749538 83.4246468,47.7788308 82.011248,48.0668308 C80.596405,48.3559385 78.999584,48.5010462 77.2177159,48.5010462 C75.7750706,48.5010462 74.453022,48.3707077 73.2508477,48.1102154 C72.0493956,47.8506462 71.0169231,47.4160615 70.1546939,46.8092308 C69.2917425,46.2024 68.6270173,45.4212923 68.1608791,44.4668308 C67.6941994,43.512 67.4609498,42.3413538 67.4609498,40.9530462 C67.4609498,39.5654769 67.7510675,38.4007385 68.3305808,37.4616 C68.9100942,36.5217231 69.6593093,35.7696 70.5793093,35.2056 C71.4973234,34.6416 72.522394,34.2371077 73.6547017,33.9906462 C74.7846625,33.7449231 75.9164286,33.6219692 77.0478336,33.6219692 C77.8678179,33.6219692 78.772292,33.6657231 79.7625196,33.7519385 L79.7625196,33.2315077 Z M79.7625196,37.6993846 C79.4231162,37.6421538 79.0555495,37.5910154 78.6594584,37.5478154 C78.2633673,37.5046154 77.9102433,37.4826462 77.5991837,37.4826462 C76.2134066,37.4826462 75.1172057,37.7357538 74.3118446,38.2417846 C73.5057614,38.7481846 73.10281,39.5654769 73.10281,40.6923692 C73.10281,41.4456 73.257708,42.0227077 73.5694898,42.4277538 C73.8803689,42.8337231 74.255157,43.1296615 74.6933124,43.3172308 C75.132551,43.5055385 75.5985086,43.6201846 76.0935322,43.6635692 C76.5880141,43.7073231 77.0187677,43.7289231 77.387237,43.7289231 C77.8111303,43.7289231 78.2362873,43.6934769 78.6594584,43.6201846 C79.0831711,43.5489231 79.4509184,43.4837538 79.7625196,43.4256 L79.7625196,37.6993846 Z M84.8102433,25.5976615 C85.4888697,25.4523692 86.1182104,25.3657846 86.6979042,25.3369846 C87.2775981,25.308 87.779843,25.2930462 88.2042779,25.2930462 C88.7698901,25.2930462 89.3351413,25.308 89.9009341,25.3369846 C90.4665463,25.3657846 90.9886499,25.4390769 91.4699529,25.5537231 L96.2636656,42.2542154 L100.971986,25.5537231 C101.452567,25.4665846 101.961491,25.4014154 102.499662,25.3582154 C103.037111,25.3148308 103.57456,25.2930462 104.111107,25.2930462 C104.535542,25.2930462 105.023163,25.308 105.575055,25.3369846 C106.125683,25.3657846 106.755204,25.4523692 107.462896,25.5976615 L99.148595,47.9804308 C98.6113265,48.0668308 98.0453532,48.1246154 97.4513972,48.1541538 C96.8578022,48.1822154 96.3625981,48.1971692 95.9665071,48.1971692 C95.5427943,48.1971692 95.0614914,48.1822154 94.5247645,48.1541538 C93.9873155,48.1246154 93.4783909,48.0524308 92.99781,47.9374154 L84.8102433,25.5976615 Z M118.617716,33.2315077 C118.617716,32.5375385 118.504882,31.9737231 118.279035,31.5398769 C118.051743,31.1064 117.741586,30.7668923 117.345495,30.5198769 C116.948681,30.2748923 116.460338,30.1081846 115.881727,30.0214154 C115.302033,29.9350154 114.65843,29.8918154 113.952363,29.8918154 C112.424686,29.8918154 110.797896,30.1949538 109.074341,30.8025231 C108.677527,30.0513231 108.381091,29.3424 108.183046,28.6764923 C107.984278,28.0116923 107.885887,27.2169231 107.885887,26.2907077 C109.130306,25.8572308 110.374003,25.5395077 111.619325,25.3369846 C112.863022,25.1352 114.021507,25.0336615 115.097669,25.0336615 C118.038744,25.0336615 120.336578,25.7562462 121.990267,27.2014154 C123.6454,28.6484308 124.472245,30.9620308 124.472245,34.1422154 L124.472245,47.1561231 C123.481656,47.4749538 122.279662,47.7788308 120.866264,48.0668308 C119.452143,48.3559385 117.8546,48.5010462 116.073454,48.5010462 C114.630267,48.5010462 113.309121,48.3707077 112.106947,48.1102154 C110.904411,47.8506462 109.872841,47.4160615 109.010612,46.8092308 C108.146939,46.2024 107.482755,45.4212923 107.016075,44.4668308 C106.549215,43.512 106.316688,42.3413538 106.316688,40.9530462 C106.316688,39.5654769 106.606264,38.4007385 107.185777,37.4616 C107.765471,36.5217231 108.514686,35.7696 109.434505,35.2056 C110.353242,34.6416 111.378132,34.2371077 112.509898,33.9906462 C113.640761,33.7449231 114.771444,33.6219692 115.903932,33.6219692 C116.723917,33.6219692 117.627488,33.6657231 118.617716,33.7519385 L118.617716,33.2315077 Z M118.617716,37.6993846 C118.279035,37.6421538 117.911468,37.5910154 117.514474,37.5478154 C117.118203,37.5046154 116.765078,37.4826462 116.45438,37.4826462 C115.069325,37.4826462 113.973124,37.7357538 113.167763,38.2417846 C112.36168,38.7481846 111.958548,39.5654769 111.958548,40.6923692 C111.958548,41.4456 112.113807,42.0227077 112.424686,42.4277538 C112.736287,42.8337231 113.110173,43.1296615 113.548509,43.3172308 C113.987747,43.5055385 114.453705,43.6201846 114.948909,43.6635692 C115.443932,43.7073231 115.874686,43.7289231 116.242433,43.7289231 C116.666868,43.7289231 117.091484,43.6934769 117.514474,43.6201846 C117.938909,43.5489231 118.307559,43.4837538 118.617716,43.4256 L118.617716,37.6993846 Z" id="Combined-Shape" fill="#005B9C"></path>
                    <path d="M23.4854553,51.2396308 C11.7736892,51.2396308 1.44942973,49.0959998 2.17529971,44.5203785 L45.1240502,45.0880615 C44.7355416,48.5045538 35.1975824,51.2396308 23.4854553,51.2396308 Z" id="Fill-6" fill="#005B9C"></path>
                    <path d="M1.83350078,44.3499692 C1.83350078,47.0682462 11.5274411,49.2723692 23.4854553,49.2723692 C35.4436499,49.2723692 45.1383124,47.0682462 45.1383124,44.3499692 C45.1383124,41.6309538 35.4436499,39.4273846 23.4854553,39.4273846 C11.5274411,39.4273846 1.83350078,41.6309538 1.83350078,44.3499692" id="Fill-8" fill="#153871"></path>
                    <path d="M7.6366816,21.3042462 L7.4589325,21.3042462 C7.45712716,21.4366154 7.45514129,21.5686154 7.45514129,21.7000615 C7.45514129,34.9236923 14.6196232,45.6432 23.4560283,45.6432 C32.2929749,45.6432 39.4569152,34.9236923 39.4569152,21.7000615 C39.4569152,21.5686154 39.4551099,21.4366154 39.453124,21.3042462 L38.5520572,21.3042462 C38.5678892,21.2655047 38.5759105,21.2264797 38.5759105,21.1872 C38.5759105,20.0424 31.7470466,19.1128615 23.3221473,19.1128615 C14.897248,19.1128615 7.61351936,19.9833049 7.61351936,21.1872 C7.61351936,21.2265774 7.62131175,21.2655991 7.6366816,21.3042462 Z" id="Combined-Shape" fill="#005B9C"></path>
                    <path d="M37.6662009,21.8990769 C35.5534144,22.6947692 30.0020016,23.2624615 23.4854553,23.2624615 C16.9696311,23.2624615 11.4183987,22.6947692 9.30543171,21.8990769 C11.4183987,21.1032 16.9696311,20.5353231 23.4854553,20.5353231 C30.0020016,20.5353231 35.5534144,21.1032 37.6662009,21.8990769" id="Fill-13" fill="#2D2118"></path>
                    <path d="M15.0648195,41.5550769 L14.511303,41.5550769 L14.169011,41.1096 C12.0746389,38.3865231 9.00682889,36.9561231 6.29882261,35.6940923 C5.6489011,35.3911385 5.03490581,35.1053538 4.4544898,34.8107077 C2.15737834,33.6448615 0.431656201,31.2828923 0.159050235,28.9342154 C-0.045855573,27.1598769 0.597747253,25.5361846 1.97233124,24.3622154 C2.7327394,23.712 3.85638148,23.3379692 5.05404239,23.3379692 C7.05345369,23.3379692 9.24874411,24.3792 10.0595212,26.6778462 C13.3804396,27.1654154 16.8609498,30.2765538 16.8609498,34.1939077 C16.8609498,35.2737231 17.1438462,36.3073846 17.3942465,37.2184615 C17.7433987,38.4961846 18.0730534,39.7008 17.3745683,40.6443692 C16.6986499,41.5550769 15.468854,41.5550769 15.0648195,41.5550769 L15.0648195,41.5550769 Z M5.05404239,25.6685538 C4.39184458,25.6685538 3.78579278,25.8487385 3.43339089,26.1498462 C2.64806907,26.8214769 2.30794349,27.6660923 2.42222135,28.6595077 C2.60203297,30.2102769 3.88255887,31.9185231 5.46746468,32.7227077 C6.01430141,33.0003692 6.61132653,33.2789538 7.2439168,33.5737846 C9.86905808,34.7972308 13.0960989,36.3009231 15.4962951,39.0989538 C15.4518838,38.7731077 15.3101648,38.2536 15.1984144,37.8476308 C14.9240031,36.8435077 14.5818917,35.5932923 14.5818917,34.1939077 C14.5818917,31.2843692 11.6205965,28.9423385 9.16894819,28.9423385 L8.21229984,28.9423385 L8.04693093,27.9790154 C7.75284144,26.2740923 6.25134223,25.6685538 5.05404239,25.6685538 L5.05404239,25.6685538 Z" id="Fill-14" fill="#005B9C"></path>
                    <path d="M126.847347,25.5537231 C127.243438,25.4665846 127.638265,25.4014154 128.035259,25.3582154 C128.43135,25.3148308 128.868783,25.2930462 129.350267,25.2930462 C129.830667,25.2930462 130.253838,25.3148308 130.622127,25.3582154 C130.990777,25.4014154 131.371703,25.4665846 131.768516,25.5537231 C131.853006,25.6988308 131.930455,25.9078154 132.001044,26.1823385 C132.071633,26.4581538 132.135542,26.7465231 132.192951,27.0500308 C132.249097,27.3537231 132.298203,27.6504 132.34117,27.9395077 C132.382692,28.2288 132.418619,28.4748923 132.446601,28.6764923 C132.728956,28.2432 133.069082,27.8091692 133.465173,27.3753231 C133.859639,26.9416615 134.320542,26.5513846 134.843909,26.2044923 C135.366554,25.8572308 135.953289,25.5751385 136.604294,25.3582154 C137.254396,25.1416615 137.975447,25.0336615 138.76763,25.0336615 C141.255926,25.0336615 143.128964,25.7272615 144.387284,27.1152 C145.646327,28.5038769 146.275667,30.6871385 146.275667,33.6657231 L146.275667,47.9804308 C145.257818,48.1541538 144.253689,48.2409231 143.263281,48.2409231 C142.273776,48.2409231 141.270369,48.1541538 140.25252,47.9804308 L140.25252,35.3139692 C140.25252,33.7519385 140.019089,32.5523077 139.552229,31.7132308 C139.085549,30.8747077 138.271703,30.4556308 137.112316,30.4556308 C136.631013,30.4556308 136.136711,30.5276308 135.627786,30.6723692 C135.118681,30.8180308 134.659042,31.0992 134.250495,31.5186462 C133.839058,31.9379077 133.507418,32.5229538 133.253226,33.2745231 C132.998312,34.0273846 132.871758,35.0106462 132.871758,36.2250462 L132.871758,47.9804308 C131.853006,48.1541538 130.8496,48.2409231 129.859372,48.2409231 C128.868783,48.2409231 127.865557,48.1541538 126.847347,47.9804308 L126.847347,25.5537231 Z M153.572119,38.6540308 C153.684953,40.3888615 154.278367,41.6473846 155.353085,42.4277538 C156.428163,43.2088615 157.841381,43.5991385 159.594906,43.5991385 C160.555887,43.5991385 161.539254,43.5055385 162.541939,43.3172308 C163.546068,43.1296615 164.500549,42.8619692 165.406287,42.5148923 C165.718069,43.0938462 165.985981,43.7876308 166.21237,44.5966154 C166.43894,45.4063385 166.565495,46.2736615 166.59456,47.1995077 C164.38916,48.0668308 161.899419,48.5010462 159.128046,48.5010462 C157.091264,48.5010462 155.345502,48.2112 153.890039,47.6335385 C152.433673,47.0549538 151.244498,46.2526154 150.327025,45.2261538 C149.406484,44.1996923 148.727857,42.9773538 148.290243,41.5602462 C147.851185,40.1431385 147.632378,38.5956923 147.632378,36.9186462 C147.632378,35.2704 147.858046,33.7236923 148.311185,32.2777846 C148.763964,30.8315077 149.436452,29.5739077 150.327025,28.5038769 C151.217598,27.4338462 152.319937,26.5875692 153.635848,25.9656 C154.949411,25.3449231 156.48467,25.0336615 158.237473,25.0336615 C159.765149,25.0336615 161.12186,25.308 162.309411,25.8572308 C163.496962,26.4070154 164.508132,27.1582154 165.343281,28.1128615 C166.176264,29.0675077 166.805785,30.2028923 167.230581,31.5186462 C167.654835,32.8344 167.866782,34.2443077 167.866782,35.7474462 C167.866782,36.2972308 167.845298,36.8398154 167.803053,37.3742769 C167.760086,37.9098462 167.710981,38.3363077 167.654835,38.6540308 L153.572119,38.6540308 Z M162.183399,34.3596923 C162.125086,32.9708308 161.751201,31.8504 161.057951,30.9980308 C160.364702,30.1451077 159.39668,29.7180923 158.152983,29.7180923 C156.737959,29.7180923 155.663242,30.1235077 154.92865,30.9326769 C154.192433,31.7424 153.754819,32.8846154 153.613642,34.3596923 L162.183399,34.3596923 Z M170.835479,32.4295385 C170.835479,28.536 173.705243,25.5537231 176.732253,25.5537231 L176.732253,47.9804308 C175.713681,48.1541538 174.723995,48.2409231 173.761931,48.2409231 C172.830016,48.2409231 171.854231,48.1541538 170.835479,47.9804308 L170.835479,32.4295385 Z M179.70095,25.5537231 C180.125565,25.4665846 180.527975,25.4014154 180.910165,25.3582154 C181.292535,25.3148308 181.708666,25.2930462 182.161625,25.2930462 C182.585157,25.2930462 183.002912,25.3224 183.412724,25.3801846 C183.821994,25.4390769 184.225848,25.5105231 184.622119,25.5976615 C184.707151,25.7422154 184.784058,25.9515692 184.855369,26.2257231 C184.925235,26.5013538 184.989144,26.7900923 185.046554,27.0930462 C185.103422,27.3967385 185.151625,27.7002462 185.194592,28.0044923 C185.236837,28.3083692 185.272221,28.5620308 185.300565,28.7638154 C185.922684,27.8675077 186.68544,27.0653538 187.590636,26.3564308 C188.496374,25.6478769 189.62832,25.2930462 190.98467,25.2930462 C191.267206,25.2930462 191.593611,25.308 191.961177,25.3369846 C192.328203,25.3657846 192.596837,25.4091692 192.765816,25.4665846 C192.822504,25.7562462 192.865651,26.0889231 192.893273,26.4648 C192.921617,26.8403077 192.93624,27.2313231 192.93624,27.636 C192.93624,28.1278154 192.915479,28.6632 192.872512,29.2406769 C192.829364,29.8196308 192.752818,30.3684923 192.639262,30.8889231 C192.328203,30.8315077 191.981939,30.8025231 191.600471,30.8025231 L190.900361,30.8025231 C190.419058,30.8025231 189.881609,30.8536615 189.288195,30.9540923 C188.693878,31.0561846 188.128085,31.3231385 187.590636,31.7564308 C187.054089,32.1906462 186.607991,32.8414154 186.254867,33.7089231 C185.901743,34.5764308 185.725181,35.7908308 185.725181,37.3532308 L185.725181,48.0236308 C185.216256,48.1102154 184.707151,48.168 184.197504,48.1971692 C183.688579,48.2254154 183.193917,48.2409231 182.712614,48.2409231 C182.232033,48.2409231 181.74387,48.2254154 181.249568,48.1971692 C180.755086,48.168 180.238218,48.1102154 179.70095,48.0236308 L179.70095,25.5537231 Z M202.43737,48.5010462 C200.656224,48.5010462 199.107786,48.2041846 197.792057,47.6115692 C196.477049,47.0196923 195.389152,46.1948308 194.526201,45.1393846 C193.662527,44.0839385 193.013148,42.8470154 192.574631,41.4302769 C192.136295,40.0137231 191.916766,38.4806769 191.916766,36.8318769 C191.916766,35.1832615 192.136295,33.6365538 192.574631,32.1906462 C193.013148,30.7443692 193.662527,29.4939692 194.526201,28.4383385 C195.389152,27.3828923 196.477049,26.5513846 197.792057,25.9441846 C199.107786,25.3369846 200.656224,25.0336615 202.43737,25.0336615 C204.218516,25.0336615 205.773815,25.3369846 207.104349,25.9441846 C208.432355,26.5513846 209.535597,27.3828923 210.412991,28.4383385 C211.28894,29.4939692 211.939223,30.7443692 212.363838,32.1906462 C212.788273,33.6365538 213.00022,35.1832615 213.00022,36.8318769 C213.00022,38.4806769 212.788273,40.0137231 212.363838,41.4302769 C211.939223,42.8470154 211.28894,44.0839385 210.412991,45.1393846 C209.535597,46.1948308 208.432355,47.0196923 207.104349,47.6115692 C205.773815,48.2041846 204.218516,48.5010462 202.43737,48.5010462 Z M202.43737,43.8156923 C204.021374,43.8156923 205.158014,43.2158769 205.852889,42.0164308 C206.544694,40.8160615 206.891499,39.0880615 206.891499,36.8318769 C206.891499,34.5764308 206.544694,32.8486154 205.852889,31.6480615 C205.158014,30.4489846 204.021374,29.8478769 202.43737,29.8478769 C200.88117,29.8478769 199.757889,30.4489846 199.064819,31.6480615 C198.37175,32.8486154 198.025487,34.5764308 198.025487,36.8318769 C198.025487,39.0880615 198.37175,40.8160615 199.064819,42.0164308 C199.757889,43.2158769 200.88117,43.8156923 202.43737,43.8156923 Z M219.022826,38.2205538 C217.439184,37.7582769 216.202347,37.0704 215.311954,36.1596923 C214.421381,35.2484308 213.976005,33.8822769 213.976005,32.0601231 C213.976005,29.8630154 214.745259,28.1422154 216.286837,26.8984615 C217.828414,25.6550769 219.928022,25.0336615 222.587284,25.0336615 C223.689984,25.0336615 224.778422,25.1352 225.852418,25.3369846 C226.927135,25.5395077 228.015754,25.8432 229.118995,26.2476923 C229.062127,26.9996308 228.920769,27.7811077 228.695102,28.5902769 C228.467991,29.4001846 228.200078,30.1081846 227.889199,30.7153846 C227.209851,30.4270154 226.460455,30.1735385 225.640471,29.9564308 C224.819945,29.7400615 223.956813,29.6311385 223.053242,29.6311385 C222.091358,29.6311385 221.34124,29.7834462 220.804694,30.0865846 C220.267425,30.3902769 219.997889,30.8747077 219.997889,31.5398769 C219.997889,32.1764308 220.189796,32.6243077 220.571264,32.8846154 C220.952912,33.1452923 221.497221,33.3908308 222.204192,33.6219692 L224.622622,34.3596923 C225.413359,34.5912 226.128815,34.8731077 226.764474,35.2056 C227.401036,35.5380923 227.944443,35.9501538 228.397402,36.4427077 C228.849639,36.9339692 229.203305,37.5408 229.458218,38.2639385 C229.71241,38.9868923 229.839867,39.8688 229.839867,40.9094769 C229.839867,41.9796923 229.620157,42.9773538 229.182724,43.9030154 C228.743666,44.8283077 228.108006,45.6308308 227.273399,46.3107692 C226.438791,46.9897846 225.428705,47.5244308 224.241154,47.9152615 C223.053242,48.3055385 221.70989,48.5010462 220.210377,48.5010462 C219.532111,48.5010462 218.909992,48.4790769 218.34438,48.4356923 C217.779309,48.3923077 217.234097,48.3197538 216.711272,48.2185846 C216.187724,48.1172308 215.672661,47.9946462 215.162834,47.8506462 C214.654631,47.7057231 214.101837,47.5181538 213.50752,47.2866462 C213.564568,46.5053538 213.699608,45.7176 213.912457,44.9226462 C214.124223,44.1271385 214.398995,43.3541538 214.739121,42.6012923 C215.672661,42.9773538 216.555471,43.2590769 217.389898,43.4475692 C218.224505,43.6360615 219.092873,43.7289231 219.997889,43.7289231 C220.394702,43.7289231 220.826177,43.6934769 221.293038,43.6201846 C221.759176,43.5489231 222.189568,43.4185846 222.587284,43.2300923 C222.981931,43.0427077 223.314294,42.7966154 223.583108,42.4929231 C223.851743,42.1888615 223.986782,41.7923077 223.986782,41.3004923 C223.986782,40.6056 223.780432,40.1071385 223.371162,39.8034462 C222.96117,39.4997538 222.388516,39.2326154 221.653203,39.0009231 L219.022826,38.2205538 Z M170.835479,29.3289231 C171.879505,25.7688 174.1573,24.0110769 176.732253,23.4371077 L176.732253,20.6407385 C176.732253,20.6407385 175.29376,20.4459692 173.784137,20.4459692 C172.286429,20.4459692 170.835479,20.6407385 170.835479,20.6407385 L170.835479,29.3289231 Z" id="Combined-Shape" fill="#0D8B42"></path>
                    <path d="M44.7359027,19.2550154 C40.2294192,17.7987692 37.1563736,15.1476923 37.1563736,15.1476923 C31.2711538,34.2131077 28.9742229,41.4489231 28.9742229,41.4489231 C27.7081397,45.6422769 24.420259,54.9793846 16.8773783,56.3844923 C16.4829121,56.4583385 16.3561774,57.2403692 16.7484772,57.4137231 C34.8094349,65.4192 43.6059419,52.3977231 47.4366876,40.0035692 C51.1878179,27.8656615 50.1905495,31.0947692 53.4876374,20.4260308 C53.4876374,20.4260308 49.623854,20.8353231 44.7359027,19.2550154" id="Fill-24" fill="#0D8B42"></path>
                    <path d="M44.9516405,19.9303323 C48.7356279,21.2705161 52.8789012,21.4016016 53.3811224,20.6781819 C54.0198469,19.7581376 50.0147096,17.628743 46.1323312,16.2545844 C41.9737363,14.7817372 37.5020674,14.5228596 37.25568,14.9687478 C36.6695613,16.0294486 41.4187755,18.6799389 44.9516405,19.9303323 Z" id="Fill-26" fill="#005B2E"></path>
                    <path d="M49.946819,21.2307692 C49.946819,21.2307692 49.3342992,21.1592095 49.130126,21.1286774 C48.940897,21.1005306 48.3730159,20.9953378 48.3730159,20.9953378 L51.9648736,14.7395877 C52.7644874,13.3408339 54.4887034,11.481474 55.4781285,11.0769231 C55.4781285,11.0769231 55.7762369,11.1742443 56.056684,11.4165932 C56.3553748,11.6742081 56.5873016,12.034392 56.5873016,12.034392 C55.5349942,12.4258237 53.7779786,14.4230552 53.0674479,15.7113686 L49.946819,21.2307692 Z" id="Fill-29" fill="#8A8B8A"></path>
                    <path d="" id="Fill-30" fill="#9E9F9E"></path>
                    <path d="M28.9182575,31.9030154 C28.8716797,31.7566154 28.7400706,31.6556308 28.5898666,31.6510154 L25.029741,31.5341538 L23.8214286,28.1080615 C23.7703375,27.9633231 23.6358399,27.8664 23.4854553,27.8664 C23.3350706,27.8664 23.200573,27.9633231 23.1494819,28.1076923 L21.9408085,31.5341538 L18.3806829,31.6510154 C18.2304788,31.6556308 18.0992308,31.7566154 18.0524725,31.9030154 C18.0064364,32.0490462 18.0542779,32.2094769 18.1734301,32.3041846 L20.986146,34.5380308 L19.9942936,38.0366769 C19.9529513,38.1841846 20.0058477,38.3431385 20.1275275,38.4336 C20.2492072,38.5246154 20.4134929,38.5262769 20.5378807,38.4402462 L23.4854553,36.3952615 L26.4326688,38.4402462 C26.4933281,38.4821538 26.5628336,38.5035692 26.6330612,38.5035692 C26.7063579,38.5035692 26.7803768,38.4803077 26.843022,38.4336 C26.9647017,38.3431385 27.0181397,38.1841846 26.9762559,38.0366769 L25.9840424,34.5380308 L28.7972998,32.3041846 C28.9162716,32.2094769 28.964113,32.0490462 28.9182575,31.9030154" id="Fill-32" fill="#FFDA1A"></path>
                    <path d="M23.7768367,8.05809231 C21.8037834,9.6792 18.8697488,11.7168 18.6948116,14.1985846 C18.4727551,17.3523692 23.7768367,21.4380923 23.7768367,21.4380923 C23.7768367,21.4380923 20.7785322,18.0214154 20.7785322,14.7625846 C20.7785322,11.5039385 25.1274097,9.57212308 27.0903532,6.86676923 C29.6842622,3.29150769 27.5193014,0.161353846 27.5193014,0.161353846 C28.2491994,4.32276923 25.7045761,6.47409231 23.7768367,8.05809231 Z M32.1153297,8.05809231 C32.1153297,8.05809231 23.7811695,10.3744615 23.7811695,14.6379692 C23.7811695,18.1752 26.1710754,18.3337846 26.1710754,20.4293538 C26.1710754,22.0949538 25.1293956,22.5965538 25.1293956,22.5965538 C25.1293956,22.5965538 28.2520879,21.2176615 28.2226609,19.0244308 C28.1934144,16.8310154 23.845259,14.7518769 27.2874961,11.6409231 C30.148956,9.05427692 32.1153297,8.05809231 32.1153297,8.05809231 Z" id="Combined-Shape" fill="#9FA3A7"></path>
                </g>
            </g>
        </g>
    </g>
</svg>